<svg viewBox="0 0 341 448" fill="none" xmlns="http://www.w3.org/2000/svg">
  <g clip-path="url(#clip0)">
    <path
      d="M105.32 86.6683C104.981 86.6683 104.695 86.3946 104.695 86.0428C104.695 85.3782 105.047 84.9482 105.333 84.6224C105.606 84.2966 105.763 84.0882 105.763 83.7233C105.763 83.4627 105.619 83.2802 105.359 82.9675C105.034 82.5896 104.578 82.0553 104.578 81.1823C104.578 80.3483 104.968 79.8662 105.281 79.4883C105.554 79.1495 105.75 78.9279 105.737 78.4458C105.737 78.094 106.01 77.8203 106.362 77.8203C106.7 77.8203 106.987 78.094 106.987 78.4458C106.987 79.371 106.557 79.8922 106.245 80.2831C105.958 80.635 105.828 80.8174 105.828 81.1823C105.828 81.5732 105.997 81.7947 106.31 82.1596C106.622 82.5244 107.013 82.9805 107.013 83.7233C107.013 84.5833 106.596 85.0785 106.284 85.4434C106.036 85.73 105.945 85.8604 105.945 86.0558C105.945 86.3816 105.672 86.6552 105.32 86.6683Z"
      fill="#7AEB9B" />
    <path
      d="M113.211 69.9623C113.055 69.9623 112.899 69.9101 112.781 69.7929C112.3 69.3368 112.235 68.7895 112.195 68.3464C112.156 67.9164 112.117 67.6688 111.844 67.4082C111.649 67.2258 111.427 67.1997 111.024 67.1867C110.516 67.1606 109.826 67.1215 109.2 66.5091C108.601 65.9357 108.523 65.3233 108.471 64.8281C108.419 64.3851 108.38 64.0984 108.042 63.7726C107.794 63.5381 107.781 63.1341 108.015 62.8865C108.25 62.6389 108.654 62.6259 108.901 62.8605C109.565 63.499 109.656 64.1766 109.708 64.6717C109.76 65.1148 109.799 65.3493 110.06 65.5969C110.346 65.8706 110.633 65.8966 111.102 65.9227C111.583 65.9488 112.182 65.9879 112.716 66.4961C113.341 67.0824 113.407 67.747 113.446 68.2161C113.485 68.594 113.511 68.7504 113.641 68.8807C113.888 69.1153 113.901 69.5192 113.667 69.7668C113.537 69.8971 113.38 69.9623 113.211 69.9623Z"
      fill="#7AEB9B" />
    <path
      d="M121.688 93.7309C121.22 93.7309 120.842 93.5745 120.529 93.4442C120.126 93.2748 119.852 93.1575 119.397 93.3009C119.071 93.4051 118.719 93.2096 118.615 92.8839C118.511 92.5581 118.706 92.2063 119.032 92.102C119.917 91.8284 120.543 92.089 121.011 92.2845C121.428 92.4539 121.636 92.532 121.988 92.4278C122.366 92.3105 122.535 92.076 122.782 91.685C123.043 91.2811 123.368 90.7729 124.071 90.5514C124.892 90.3038 125.491 90.5644 125.934 90.7599C126.285 90.9162 126.428 90.9683 126.611 90.9162C126.936 90.812 127.288 91.0074 127.392 91.3332C127.496 91.659 127.301 92.0108 126.975 92.1151C126.337 92.3105 125.829 92.089 125.426 91.9066C125.035 91.7372 124.788 91.6459 124.436 91.7502C124.189 91.8284 124.058 92.0108 123.837 92.3626C123.564 92.7927 123.186 93.366 122.353 93.6266C122.118 93.6918 121.897 93.7309 121.688 93.7309Z"
      fill="#7AEB9B" />
    <path
      d="M146.495 97.9659C146.391 97.9659 146.286 97.9398 146.195 97.8877C145.896 97.7183 145.779 97.3404 145.935 97.0407C146.247 96.4543 146.768 96.2589 147.172 96.0895C147.576 95.9331 147.81 95.8289 147.979 95.5031C148.109 95.2685 148.07 95.047 147.979 94.643C147.875 94.1479 147.732 93.4703 148.148 92.7015C148.539 91.9717 149.112 91.7372 149.581 91.5547C149.985 91.3853 150.258 91.2811 150.479 90.8641C150.649 90.5644 151.026 90.4471 151.326 90.6035C151.625 90.7729 151.742 91.1508 151.586 91.4505C151.143 92.2584 150.518 92.519 150.05 92.7145C149.633 92.8839 149.425 92.9751 149.255 93.3009C149.073 93.6527 149.112 93.9264 149.216 94.3824C149.32 94.8515 149.438 95.4379 149.099 96.0895C148.695 96.8453 148.083 97.0798 147.628 97.2492C147.276 97.3925 147.133 97.4577 147.042 97.6141C146.937 97.8486 146.729 97.9659 146.495 97.9659Z"
      fill="#7AEB9B" />
    <path
      d="M115.959 108.677C115.62 108.677 115.334 108.403 115.334 108.064C115.321 107.139 115.737 106.605 116.05 106.214C116.323 105.862 116.467 105.68 116.454 105.315C116.441 104.924 116.271 104.702 115.959 104.351C115.633 103.986 115.243 103.543 115.23 102.8C115.217 101.94 115.633 101.432 115.933 101.067C116.18 100.767 116.271 100.637 116.258 100.454C116.245 100.103 116.532 99.8159 116.87 99.8159C117.222 99.8028 117.508 100.09 117.508 100.428C117.521 101.093 117.17 101.523 116.896 101.862C116.623 102.187 116.467 102.396 116.48 102.774C116.48 103.034 116.623 103.204 116.896 103.517C117.235 103.895 117.691 104.416 117.704 105.289C117.717 106.123 117.339 106.605 117.027 106.996C116.753 107.335 116.571 107.569 116.584 108.038C116.597 108.39 116.31 108.677 115.972 108.677C115.959 108.677 115.959 108.677 115.959 108.677Z"
      fill="#7AEB9B" />
    <path
      d="M178.45 87.9452C178.359 87.9452 178.268 87.9192 178.176 87.8801C177.864 87.7237 177.734 87.3458 177.89 87.0461C178.19 86.4467 178.684 86.2252 179.088 86.0558C179.479 85.8864 179.713 85.7691 179.882 85.4433C180 85.2088 179.947 84.9872 179.856 84.5833C179.739 84.0881 179.57 83.4235 179.947 82.6417C180.312 81.8989 180.872 81.6383 181.328 81.4298C181.731 81.2474 181.992 81.1301 182.2 80.7001C182.356 80.3874 182.721 80.2571 183.034 80.4134C183.346 80.5698 183.476 80.9347 183.32 81.2474C182.916 82.0814 182.291 82.355 181.836 82.5635C181.432 82.7459 181.224 82.8502 181.067 83.176C180.898 83.5278 180.95 83.8014 181.067 84.2575C181.185 84.7266 181.328 85.313 181.015 85.9646C180.638 86.7334 180.039 86.994 179.596 87.1895C179.244 87.3458 179.101 87.411 179.023 87.5804C178.906 87.8149 178.684 87.9452 178.45 87.9452Z"
      fill="#7AEB9B" />
    <path
      d="M168.801 80.7651C168.501 80.7651 168.228 80.5435 168.189 80.2308C168.085 79.5662 168.371 79.0971 168.606 78.7322C168.827 78.3674 168.957 78.1459 168.892 77.768C168.853 77.5073 168.684 77.351 168.371 77.0904C167.994 76.7646 167.46 76.3085 167.329 75.4485C167.199 74.6275 167.512 74.0933 167.772 73.6633C167.994 73.2854 168.15 73.0378 168.072 72.5687C168.02 72.2299 168.254 71.9041 168.593 71.852C168.931 71.7999 169.257 72.0344 169.309 72.3732C169.452 73.2854 169.1 73.8718 168.853 74.3018C168.619 74.6927 168.514 74.8882 168.58 75.253C168.645 75.6439 168.84 75.8394 169.205 76.1391C169.569 76.4519 170.025 76.8428 170.142 77.5725C170.272 78.4195 169.934 78.9798 169.673 79.3838C169.478 79.7096 169.4 79.8529 169.426 80.0353C169.478 80.3741 169.244 80.6999 168.905 80.752C168.866 80.752 168.827 80.7651 168.801 80.7651Z"
      fill="#7AEB9B" />
    <path
      d="M201.433 77.8463C201.329 77.8463 201.212 77.8202 201.121 77.7551C200.326 77.286 200.092 76.6475 199.923 76.1783C199.766 75.7614 199.675 75.5398 199.363 75.3574C199.024 75.1619 198.738 75.188 198.282 75.2792C197.8 75.3574 197.214 75.4616 196.576 75.0968C195.834 74.6668 195.626 74.0413 195.469 73.5852C195.339 73.2203 195.287 73.077 195.118 72.9858C194.818 72.8164 194.714 72.4255 194.896 72.1257C195.066 71.826 195.456 71.7218 195.756 71.9042C196.329 72.243 196.511 72.7643 196.654 73.1812C196.798 73.5852 196.889 73.8328 197.214 74.0152C197.436 74.1455 197.657 74.1195 198.074 74.0413C198.568 73.9501 199.246 73.8328 200.001 74.2758C200.717 74.6928 200.925 75.2792 201.108 75.7483C201.264 76.1653 201.355 76.439 201.772 76.6735C202.071 76.8429 202.175 77.2338 201.993 77.5336C201.85 77.729 201.642 77.8463 201.433 77.8463Z"
      fill="#7AEB9B" />
    <path
      d="M133.707 73.3765C133.369 73.3765 133.082 73.1029 133.082 72.7641C133.069 72.0995 133.421 71.6695 133.707 71.3307C133.981 71.0049 134.137 70.7964 134.137 70.4185C134.137 70.1579 133.994 69.9755 133.72 69.6758C133.395 69.2979 132.939 68.7766 132.913 67.9036C132.9 67.0696 133.291 66.5875 133.59 66.1965C133.864 65.8577 134.046 65.6232 134.033 65.1541C134.033 64.8022 134.306 64.5286 134.645 64.5156C134.983 64.5025 135.27 64.7892 135.283 65.128C135.296 66.0532 134.866 66.5875 134.554 66.9784C134.267 67.3302 134.137 67.5127 134.15 67.8775C134.163 68.2685 134.332 68.49 134.645 68.8418C134.957 69.2067 135.361 69.6628 135.374 70.3925C135.387 71.2525 134.97 71.7607 134.658 72.1256C134.411 72.4253 134.319 72.5426 134.319 72.738C134.345 73.0768 134.072 73.3635 133.707 73.3765C133.72 73.3765 133.72 73.3765 133.707 73.3765Z"
      fill="#7AEB9B" />
    <path
      d="M196.147 100.872C195.99 100.872 195.847 100.819 195.717 100.702C195.04 100.077 194.949 99.3991 194.883 98.9039C194.818 98.4609 194.779 98.2394 194.519 97.9918C194.232 97.7181 193.946 97.6921 193.477 97.679C192.995 97.653 192.396 97.6269 191.849 97.1317C191.224 96.5454 191.146 95.8938 191.094 95.4247C191.055 95.0468 191.016 94.8904 190.886 94.7601C190.638 94.5256 190.612 94.1216 190.847 93.874C191.081 93.6264 191.485 93.6004 191.732 93.8349C192.227 94.291 192.279 94.8383 192.331 95.2683C192.383 95.6983 192.422 95.9459 192.696 96.2066C192.891 96.389 193.113 96.402 193.529 96.4281C194.037 96.4541 194.727 96.4802 195.365 97.0796C195.977 97.6399 196.055 98.2524 196.121 98.7476C196.173 99.1906 196.212 99.4773 196.563 99.79C196.811 100.025 196.837 100.429 196.602 100.676C196.472 100.806 196.303 100.872 196.147 100.872Z"
      fill="#7AEB9B" />
    <path
      d="M191.133 143.691C191.003 143.691 190.86 143.652 190.756 143.561C190.482 143.352 190.43 142.961 190.639 142.688C191.198 141.958 191.863 141.801 192.357 141.697C192.8 141.593 193.022 141.541 193.243 141.254C193.49 140.941 193.49 140.655 193.464 140.186C193.438 139.704 193.412 139.104 193.868 138.518C194.389 137.84 195.04 137.71 195.509 137.606C195.886 137.527 196.03 137.488 196.147 137.332C196.355 137.058 196.746 137.006 197.019 137.215C197.293 137.423 197.345 137.814 197.136 138.088C196.733 138.622 196.186 138.726 195.756 138.817C195.339 138.909 195.079 138.974 194.858 139.26C194.701 139.469 194.701 139.69 194.714 140.107C194.74 140.616 194.766 141.306 194.233 141.997C193.725 142.648 193.126 142.792 192.644 142.896C192.214 142.987 191.928 143.052 191.641 143.43C191.511 143.6 191.329 143.691 191.133 143.691Z"
      fill="#7AEB9B" />
    <path
      d="M210.392 127.598C210.353 127.598 210.301 127.598 210.262 127.585C209.364 127.389 208.947 126.842 208.634 126.451C208.361 126.099 208.205 125.917 207.853 125.839C207.462 125.747 207.215 125.878 206.798 126.086C206.369 126.308 205.835 126.594 205.119 126.438C204.285 126.256 203.895 125.721 203.595 125.343C203.361 125.044 203.256 124.913 203.074 124.874C202.736 124.796 202.527 124.47 202.605 124.132C202.684 123.793 203.009 123.584 203.348 123.662C203.999 123.806 204.324 124.249 204.598 124.601C204.858 124.939 205.014 125.148 205.379 125.226C205.639 125.278 205.835 125.187 206.199 124.992C206.642 124.757 207.254 124.431 208.114 124.627C208.921 124.809 209.299 125.291 209.611 125.682C209.885 126.034 210.054 126.256 210.523 126.36C210.861 126.438 211.07 126.764 211.004 127.103C210.939 127.402 210.679 127.598 210.392 127.598Z"
      fill="#7AEB9B" />
    <path
      d="M184.948 120.209C184.935 120.209 184.909 120.209 184.896 120.209C184.557 120.183 184.297 119.884 184.323 119.532C184.401 118.607 184.87 118.124 185.221 117.76C185.534 117.434 185.69 117.264 185.716 116.9C185.742 116.509 185.599 116.274 185.313 115.883C185.026 115.492 184.674 114.997 184.74 114.267C184.805 113.407 185.273 112.951 185.612 112.612C185.885 112.339 185.99 112.221 186.003 112.039C186.029 111.7 186.328 111.44 186.68 111.466C187.018 111.492 187.279 111.791 187.253 112.143C187.201 112.808 186.81 113.199 186.498 113.511C186.198 113.811 186.016 114.007 185.99 114.372C185.964 114.632 186.094 114.815 186.328 115.153C186.628 115.557 187.031 116.131 186.953 116.991C186.888 117.825 186.458 118.268 186.107 118.62C185.794 118.932 185.599 119.141 185.56 119.61C185.534 119.962 185.26 120.209 184.948 120.209Z"
      fill="#7AEB9B" />
    <path
      d="M202.827 110.462C202.449 110.462 202.137 110.371 201.85 110.28C201.434 110.149 201.147 110.071 200.717 110.254C200.405 110.384 200.027 110.241 199.897 109.915C199.767 109.589 199.91 109.224 200.236 109.094C201.082 108.742 201.746 108.937 202.215 109.081C202.645 109.211 202.866 109.263 203.205 109.12C203.569 108.964 203.712 108.716 203.921 108.299C204.142 107.869 204.416 107.335 205.093 107.048C205.887 106.722 206.512 106.918 206.968 107.061C207.332 107.178 207.489 107.217 207.658 107.139C207.971 107.009 208.348 107.152 208.478 107.478C208.609 107.791 208.465 108.169 208.14 108.299C207.528 108.56 206.994 108.39 206.577 108.26C206.174 108.13 205.913 108.064 205.575 108.208C205.327 108.312 205.223 108.507 205.041 108.872C204.806 109.328 204.494 109.941 203.686 110.28C203.374 110.41 203.087 110.462 202.827 110.462Z"
      fill="#7AEB9B" />
    <path
      d="M56.2149 40.4998C55.655 41.8028 55.3425 43.2362 55.3425 44.7348C55.3425 50.6508 60.1345 55.4461 66.0463 55.4461C71.9582 55.4461 76.7502 50.6508 76.7502 44.7348C76.7502 38.8188 71.9582 34.0234 66.0463 34.0234L64.8093 41.881L56.2149 40.4998Z"
      fill="#F5FFF5" />
    <path d="M0.052002 266.676L158.813 314.877L15.5088 332.729L0.052002 266.676Z" fill="#96B8CF" />
    <path
      d="M8.37291 305.391C8.20363 305.391 8.03435 305.325 7.91715 305.182C7.68276 304.922 7.69578 304.531 7.95622 304.296L15.0921 297.755C15.3526 297.52 15.7432 297.533 15.9776 297.794C16.212 298.054 16.199 298.445 15.9386 298.68L8.80263 305.221C8.67241 305.338 8.51615 305.391 8.37291 305.391Z"
      fill="white" />
    <path
      d="M35.1327 298.849C34.8463 298.849 34.5858 298.654 34.5207 298.367L32.1377 288.255C32.0596 287.916 32.268 287.578 32.6065 287.499C32.9451 287.421 33.2837 287.63 33.3618 287.968L35.7448 298.08C35.8229 298.419 35.6145 298.758 35.276 298.836C35.2239 298.836 35.1718 298.849 35.1327 298.849Z"
      fill="white" />
    <path
      d="M33.9348 325.028C33.8566 325.028 33.7785 325.015 33.7004 324.976L23.5955 320.806C23.2699 320.676 23.1267 320.311 23.2569 319.985C23.3871 319.66 23.7517 319.516 24.0773 319.646L34.1822 323.816C34.5077 323.947 34.651 324.312 34.5207 324.637C34.4166 324.885 34.1822 325.028 33.9348 325.028Z"
      fill="white" />
    <path
      d="M48.8057 305.99C48.6885 305.99 48.5713 305.964 48.4672 305.886C48.1807 305.703 48.0895 305.312 48.2718 305.026L52.4388 298.484C52.6211 298.197 53.0117 298.106 53.2982 298.289C53.5847 298.471 53.6759 298.862 53.4936 299.149L49.3266 305.69C49.2094 305.886 49.0141 305.99 48.8057 305.99Z"
      fill="white" />
    <path
      d="M19.077 276.827C18.9988 276.827 18.9337 276.814 18.8556 276.788C18.53 276.67 18.3738 276.305 18.491 275.98L20.275 271.223C20.3921 270.898 20.7568 270.741 21.0823 270.859C21.4078 270.976 21.5641 271.341 21.4469 271.667L19.6629 276.423C19.5718 276.67 19.3244 276.827 19.077 276.827Z"
      fill="white" />
    <path
      d="M140.374 313.131C140.283 313.131 140.179 313.105 140.101 313.066C139.788 312.909 139.671 312.531 139.814 312.219L142.197 307.462C142.354 307.15 142.731 307.032 143.044 307.176C143.356 307.332 143.474 307.71 143.33 308.023L140.947 312.779C140.83 313.001 140.609 313.131 140.374 313.131Z"
      fill="white" />
    <path
      d="M330.44 447.57C328.07 400.503 289.174 363.078 241.553 363.078C193.933 363.078 155.05 400.503 152.667 447.57H330.44Z"
      fill="#96B8CF" />
    <path d="M132.054 431.503L156.235 447.348L131.754 443.4L132.054 431.503Z" fill="white" />
    <path
      d="M208.009 432.402L182.565 447.127H216.786L223.479 443.257L224.664 447.57H239.822L238.78 436.116L233.571 432.845L208.009 432.402Z"
      fill="white" />
    <path
      d="M226.201 273.66C225.849 273.66 225.576 273.374 225.576 273.035V267.353L219.104 267.718C218.766 267.731 218.466 267.471 218.44 267.132C218.427 266.78 218.687 266.493 219.026 266.467L226.162 266.076C226.331 266.063 226.501 266.128 226.631 266.246C226.761 266.363 226.826 266.532 226.826 266.702V273.048C226.826 273.374 226.553 273.66 226.201 273.66Z"
      fill="#0A061E" />
    <path d="M210.536 98.2914L213.218 141.436L204.298 97.9917L210.536 98.2914Z" fill="#0A061E" />
    <path d="M230.185 24.8888L257.635 17.9434L253.273 27.0649L235.329 37.9717L230.185 24.8888Z" fill="#0A061E" />
    <path d="M233.845 36.9816L224.143 19.7157L266.36 0.0913086L255.656 23.8856L233.845 36.9816Z" fill="#F5FFF5" />
    <path d="M257.336 19.5332L228.493 27.2735L232.061 34.4144L256.138 24.6022L257.336 19.5332Z" fill="#0A061E" />
    <path
      d="M156.43 74.4841C156.73 75.5266 159.503 78.237 164.165 78.3543C170.559 78.4976 174.57 74.1844 175.468 71.2134C176.054 69.2718 175.911 66.7569 175.911 66.7569H159.712C159.699 66.7438 156.131 73.4417 156.43 74.4841Z"
      fill="#0A061E" />
    <path d="M88.2093 377.086L82.5839 348.927L105.333 344.809L111.818 370.975L88.2093 377.086Z" fill="#7AEB9B" />
    <path d="M127.444 395.134L137.171 434.774H100.775L95.2281 407.878L127.444 395.134Z" fill="#7AEB9B" />
    <path
      d="M106.778 432.337C106.492 432.337 106.231 432.142 106.166 431.842L100.71 407.096C100.632 406.758 100.853 406.419 101.192 406.354C101.531 406.275 101.869 406.497 101.934 406.836L107.39 431.581C107.469 431.92 107.247 432.259 106.909 432.324C106.87 432.324 106.83 432.337 106.778 432.337Z"
      fill="#32B934" />
    <path
      d="M94.0561 376.044C93.7696 376.044 93.5091 375.835 93.444 375.536L88.9775 353.527C88.9124 353.188 89.1338 352.862 89.4724 352.784C89.8109 352.719 90.1365 352.94 90.2146 353.279L94.6681 375.288C94.7332 375.627 94.5118 375.953 94.1733 376.031C94.1342 376.044 94.0951 376.044 94.0561 376.044Z"
      fill="#32B934" />
    <path
      d="M113.914 432.337C113.628 432.337 113.367 432.128 113.302 431.842L108.002 406.497C107.937 406.158 108.146 405.819 108.484 405.754C108.823 405.689 109.148 405.897 109.227 406.236L114.526 431.581C114.591 431.92 114.383 432.259 114.045 432.324C114.006 432.324 113.953 432.337 113.914 432.337Z"
      fill="#32B934" />
    <path
      d="M100.945 374.167C100.645 374.167 100.385 373.959 100.332 373.659L96.6473 354.477C96.5822 354.139 96.8036 353.813 97.1422 353.748C97.4807 353.683 97.8063 353.904 97.8714 354.243L101.557 373.424C101.622 373.763 101.4 374.089 101.062 374.154C101.023 374.154 100.984 374.167 100.945 374.167Z"
      fill="#32B934" />
    <path
      d="M121.845 432.337C121.558 432.337 121.298 432.141 121.233 431.854L114.24 401.01C114.162 400.672 114.37 400.333 114.709 400.255C115.047 400.177 115.386 400.385 115.464 400.724L122.457 431.568C122.535 431.907 122.326 432.245 121.988 432.324C121.936 432.324 121.897 432.337 121.845 432.337Z"
      fill="#32B934" />
    <path
      d="M107.429 372.929C107.143 372.929 106.882 372.721 106.817 372.434L102.807 352.953C102.742 352.614 102.95 352.288 103.288 352.21C103.627 352.145 103.953 352.353 104.031 352.692L108.041 372.173C108.107 372.512 107.898 372.838 107.56 372.916C107.508 372.929 107.468 372.929 107.429 372.929Z"
      fill="#32B934" />
    <path
      d="M129.371 432.337C129.085 432.337 128.824 432.141 128.759 431.842L121.519 399.213C121.441 398.874 121.662 398.535 122.001 398.47C122.339 398.392 122.678 398.613 122.743 398.952L129.983 431.581C130.061 431.92 129.84 432.259 129.501 432.324C129.462 432.324 129.423 432.337 129.371 432.337Z"
      fill="#32B934" />
    <path
      d="M294.083 156.904C294.083 156.904 262.271 155.119 241.762 136.967C220.784 118.411 218.87 97.6919 218.87 97.6919C218.87 97.6919 288.015 97.6919 294.474 97.6919C300.933 97.6919 307.769 102.148 305.686 109.889C303.602 117.629 294.083 156.904 294.083 156.904Z"
      fill="#F5FFF5" />
    <path
      d="M175.715 144.342C142.341 128.745 97.7802 129.474 72.0362 139.26L61.8793 181.337L105.737 211.086L141.989 240.106L236.957 240.015C236.97 240.015 230.81 170.091 175.715 144.342Z"
      fill="#F5FFF5" />
    <path
      d="M68.4164 150.05C68.4164 150.05 111.115 149.659 133.2 182.406C151.339 209.288 149.581 240.875 149.581 240.875C149.581 240.875 64.4838 240.875 58.2855 240.875C52.0871 240.875 46.8003 234.933 49.0791 226.45C50.5636 220.912 68.4164 150.05 68.4164 150.05Z"
      fill="#7AEB9B" />
    <path d="M303.212 24.5762L306.779 20.5366L318.694 29.9709L315.361 34.0757L303.212 24.5762Z" fill="#0A061E" />
    <path
      d="M227.047 68.3205C227.047 68.3205 223.701 59.5898 211.981 59.5898C205.119 59.5898 200.209 63.6685 198.152 65.975L198.985 68.3466L227.047 68.3205Z"
      fill="#5061FA" />
    <path
      d="M336.313 57.805C335.792 57.805 335.245 57.7398 334.646 57.6095C329.138 56.3585 313.29 51.6023 313.134 51.5632C313.056 51.5371 312.991 51.5111 312.939 51.4589L293.119 36.3823C292.976 36.278 292.885 36.1086 292.872 35.9392C292.859 35.7568 292.911 35.5874 293.041 35.4571L303.355 24.3548C303.576 24.1203 303.941 24.0812 304.201 24.2897C304.513 24.5242 334.997 48.11 338.487 50.7944C340.727 52.5144 340.909 54.443 340.323 55.6679C339.763 56.8276 338.37 57.805 336.313 57.805ZM313.603 50.3774C315.022 50.7944 329.685 55.1858 334.919 56.3716C336.508 56.7364 338.526 56.5019 339.177 55.1206C339.659 54.1042 339.112 52.8532 337.706 51.7717C334.45 49.2567 307.691 28.5768 303.875 25.6188L294.435 35.7959L313.603 50.3774Z"
      fill="#0A061E" />
    <path d="M255.044 68.5029L285.593 24.6021L315.296 50.9504L279.616 91.5154L255.044 68.5029Z" fill="#0A061E" />
    <path d="M286.7 407.709L296.31 417.821L285.658 429.275L276.439 447.727H265.24L268.704 422.134L286.7 407.709Z"
      fill="#5061FA" />
    <path
      d="M207.463 278.248C207.241 278.248 207.02 278.117 206.903 277.909C206.746 277.596 206.864 277.218 207.176 277.062L210.965 275.12C211.278 274.964 211.655 275.081 211.812 275.394C211.968 275.707 211.851 276.084 211.538 276.241L207.749 278.182C207.658 278.221 207.554 278.248 207.463 278.248Z"
      fill="#0A061E" />
    <path d="M106.388 348.496L140.283 347.311L137.9 334.814L104.604 340.469L106.388 348.496Z" fill="#0A061E" />
    <path
      d="M203.009 256.968C203.009 256.968 199.051 253.202 197.058 251.613C195.079 250.023 193.894 252.212 195.079 253.789C196.264 255.379 201.225 260.93 201.225 260.93L203.009 256.968Z"
      fill="#ECBFA8" />
    <path
      d="M152.003 69.2197C152.003 69.2197 148.826 73.6763 147.537 75.8654C146.247 78.0546 148.565 78.9277 149.972 77.5203C151.378 76.113 156.17 70.4316 156.17 70.4316L152.003 69.2197Z"
      fill="#ECBFA8" />
    <path
      d="M170.872 98.3174H156.834C156.483 98.3174 156.209 98.0307 156.209 97.6919C156.209 97.3531 156.496 97.0664 156.834 97.0664H170.872C171.223 97.0664 171.497 97.3531 171.497 97.6919C171.497 98.0307 171.223 98.3174 170.872 98.3174Z"
      fill="#0A061E" />
    <path
      d="M198.933 330.058C198.529 328.624 198.308 327.126 198.308 325.562C198.308 316.493 205.665 309.13 214.729 309.13C223.792 309.13 231.149 316.48 231.149 325.562C231.149 327.83 230.693 329.993 229.86 331.96L198.933 330.058Z"
      fill="#F5FFF5" />
    <path
      d="M225.693 273.66C225.446 274.364 225.341 275.133 225.407 275.941C225.667 279.042 228.376 281.349 231.475 281.088C234.574 280.827 236.879 278.117 236.618 275.016C236.553 274.221 236.319 273.478 235.967 272.813L225.693 273.66Z"
      fill="#0A061E" />
    <path
      d="M242.257 247.742C242.257 247.742 237.894 247.846 235.902 244.849C234.118 242.191 234.04 239.611 234.04 239.611H242.074L242.257 247.742Z"
      fill="#ECBFA8" />
    <path
      d="M174.4 248.837C177.551 248.446 180.117 245.762 181.119 239.872H170.819C170.806 239.872 171.405 249.202 174.4 248.837Z"
      fill="#ECBFA8" />
    <path d="M212.124 142.609L214.507 153.621L192.709 156.8L189.141 142.323L212.124 142.609Z" fill="#ECBFA8" />
    <path d="M142.536 89.7041L158.123 98.4999L144.737 117.525L129.241 108.012L142.536 89.7041Z" fill="#ECBFA8" />
    <path d="M243.142 272.332L238.493 242.387H259.068L272.272 292.855L259.719 293.155L252.544 271.836L243.142 272.332Z"
      fill="#ECBFA8" />
    <path
      d="M239.678 447.908H224.755C224.469 447.908 224.222 447.726 224.156 447.452L223.284 444.273L217.164 447.83C217.073 447.882 216.955 447.921 216.851 447.921H180.911C180.625 447.921 180.377 447.726 180.299 447.439C180.234 447.153 180.364 446.866 180.612 446.736L205.106 433.939C205.418 433.783 205.796 433.9 205.952 434.2C206.108 434.513 205.991 434.891 205.692 435.047L183.463 446.657H216.682L223.349 442.787C223.518 442.696 223.727 442.67 223.896 442.748C224.078 442.826 224.209 442.97 224.261 443.165L225.224 446.671H239.001L238.207 436.037C238.181 435.699 238.441 435.386 238.78 435.36C239.118 435.334 239.431 435.594 239.457 435.933L240.303 447.244C240.316 447.413 240.251 447.583 240.134 447.713C240.017 447.843 239.848 447.908 239.678 447.908Z"
      fill="#0A061E" />
    <path
      d="M171.497 296.634L163.176 296.829L154.868 241.995L175.468 239.024L184.792 275.407L168.137 275.797L171.497 296.634Z"
      fill="#ECBFA8" />
    <path
      d="M206.356 268.579C211.356 268.579 215.406 264.526 215.406 259.522C215.406 254.518 211.356 250.466 206.356 250.466C201.355 250.466 197.306 254.518 197.306 259.522C197.319 264.539 201.368 268.579 206.356 268.579Z"
      fill="#ECBFA8" />
    <path d="M201.59 264.969L202.475 268.839H216.747L214.078 261.398L201.59 264.969Z" fill="#ECBFA8" />
    <path
      d="M243.845 332.534L250.877 368.056L288.432 409.494L261.282 432.702L222.347 384.983L214.507 330.553L243.845 332.534Z"
      fill="#0A061E" />
    <path d="M194.675 435.673L189.922 330.553L222.034 331.739L237.491 435.673H194.675Z" fill="#0A061E" />
    <path
      d="M197.957 65.9623L243.845 65.1674L228.141 32.7858L263.586 18.3477C263.586 18.3477 281.726 77.4946 283.392 83.4236C285.476 90.8642 278.483 97.3015 273.288 97.3015H203.712L197.957 65.9623Z"
      fill="#5061FA" />
    <path d="M84.0815 355.546L108.458 358.921L105.19 343.454L82.1022 348.014L84.0815 355.546Z" fill="#0A061E" />
    <path
      d="M79.7191 247.834C83.9772 248.133 87.2456 243.273 86.6596 240.093C85.4747 240.198 80.9301 240.276 77.9221 240.445C77.9351 240.458 76.7371 247.625 79.7191 247.834Z"
      fill="#ECBFA8" />
    <path
      d="M282.494 98.3174H204.598C204.246 98.3174 203.973 98.0307 203.973 97.6919C203.973 97.3531 204.259 97.0664 204.598 97.0664H282.494C282.845 97.0664 283.119 97.3531 283.119 97.6919C283.119 98.0307 282.832 98.3174 282.494 98.3174Z"
      fill="#0A061E" />
    <path
      d="M290.515 98.3174H288.132C287.781 98.3174 287.507 98.0307 287.507 97.6919C287.507 97.3531 287.794 97.0664 288.132 97.0664H290.515C290.867 97.0664 291.14 97.3531 291.14 97.6919C291.14 98.0307 290.867 98.3174 290.515 98.3174Z"
      fill="#0A061E" />
    <path
      d="M258.534 240.627H68.6246C68.273 240.627 67.9996 240.341 67.9996 240.002C67.9996 239.663 68.286 239.376 68.6246 239.376H258.534C266.282 239.376 274.186 233.056 276.152 225.29L296.349 145.137C296.427 144.798 296.779 144.603 297.104 144.681C297.443 144.759 297.638 145.111 297.56 145.437L277.363 225.59C276.348 229.616 273.834 233.382 270.279 236.223C266.738 239.064 262.571 240.627 258.534 240.627Z"
      fill="#0A061E" />
    <path
      d="M60.6683 179.604C60.6163 179.604 60.5642 179.604 60.5121 179.591C60.1735 179.499 59.9782 179.161 60.0563 178.835L76.9065 112.104C77.9222 108.077 80.4354 104.312 83.9903 101.471C87.5453 98.6301 91.7122 97.0664 95.749 97.0664H103.028C103.38 97.0664 103.653 97.3531 103.653 97.6919C103.653 98.0307 103.367 98.3174 103.028 98.3174H95.749C88.001 98.3174 80.0968 104.637 78.1305 112.404L61.2804 179.135C61.2022 179.421 60.9418 179.604 60.6683 179.604Z"
      fill="#0A061E" />
    <path
      d="M54.3268 207.777C54.2747 207.777 54.2226 207.777 54.1705 207.764C53.832 207.672 53.6366 207.334 53.7148 207.008L57.8036 190.797C57.8948 190.459 58.2333 190.263 58.5589 190.341C58.8974 190.433 59.0928 190.771 59.0146 191.097L54.9258 207.307C54.8607 207.581 54.6003 207.777 54.3268 207.777Z"
      fill="#0A061E" />
    <path
      d="M75.435 417.195C75.3439 417.195 75.2527 417.182 75.1746 417.143C75.0183 417.078 74.9011 416.934 74.836 416.778L63.3899 383.08C63.3378 382.911 63.3508 382.728 63.429 382.572C63.5071 382.416 63.6634 382.311 63.8326 382.259L111.063 370.584L103.419 339.323C103.38 339.153 103.406 338.984 103.497 338.841C103.588 338.697 103.731 338.593 103.901 338.567L137.692 331.413C137.861 331.374 138.031 331.413 138.174 331.504C138.317 331.595 138.408 331.739 138.447 331.908L148.852 386.533C148.904 386.82 148.748 387.12 148.474 387.237L75.6824 417.156C75.5913 417.182 75.5131 417.195 75.435 417.195ZM64.8093 383.315L75.8127 415.736L147.51 386.273L137.327 332.768L104.786 339.662L112.43 370.896C112.508 371.235 112.313 371.574 111.974 371.652L64.8093 383.315Z"
      fill="#0A061E" />
    <path d="M82.2845 246.504L95.7751 292.868L70.604 300.413L62.1529 244.224L82.2845 246.504Z" fill="#F5FFF5" />
    <path d="M100.932 290.874L120.36 240.093L136.52 249.423L128.486 294.445L100.932 290.874Z" fill="#F5FFF5" />
    <path
      d="M92.8452 285.206C98.3013 285.206 102.729 280.775 102.729 275.315C102.729 269.855 98.3013 265.425 92.8452 265.425C87.3891 265.425 82.9617 269.855 82.9617 275.315C82.9617 280.775 87.376 285.206 92.8452 285.206Z"
      fill="#ECBFA8" />
    <path d="M86.4777 277.4L88.4309 289.102L103.797 287.082L100.124 273.491L86.4777 277.4Z" fill="#ECBFA8" />
    <path
      d="M199.051 294.614C203.061 293.663 205.561 289.636 204.611 285.623C203.66 281.609 199.637 279.12 195.626 280.059C191.615 281.01 189.128 285.036 190.066 289.05C191.003 293.076 195.04 295.565 199.051 294.614Z"
      fill="#7AEB9B" />
    <path
      d="M258.261 287.121C257.115 286.261 255.695 285.753 254.146 285.753C250.369 285.753 247.296 288.815 247.296 292.607C247.296 293.91 247.661 295.135 248.299 296.165L260.683 295.604L258.261 287.121Z"
      fill="#5061FA" />
    <path
      d="M201.329 330.814C201.043 329.811 200.886 328.742 200.886 327.648C200.886 321.249 206.069 316.076 212.45 316.076C218.843 316.076 224.013 321.262 224.013 327.648C224.013 329.25 223.688 330.775 223.102 332.156L201.329 330.814Z"
      fill="#F5FFF5" />
    <path
      d="M185.807 303.566C189.024 303.658 191.563 306.329 191.472 309.561C191.38 312.779 188.711 315.32 185.482 315.229L185.807 303.566Z"
      fill="#0A061E" />
    <path d="M64.9135 262.819L60.9158 237.852L80.0708 238.178L86.0738 259.548L64.9135 262.819Z" fill="#ECBFA8" />
    <path
      d="M81.3079 242.686C81.3079 242.686 78.5343 227.649 75.5783 226.476C72.6354 225.316 75.2137 241.826 75.2137 241.826L81.3079 242.686Z"
      fill="#ECBFA8" />
    <path
      d="M70.109 241.357C70.109 241.357 66.6322 223.831 69.1194 223.153C71.6065 222.476 76.5548 242.282 76.5548 242.282L70.109 241.357Z"
      fill="#ECBFA8" />
    <path
      d="M65.1607 241.748C65.1607 241.748 62.322 226.176 64.4445 225.499C66.5671 224.821 70.7991 241.474 70.7991 241.474L65.1607 241.748Z"
      fill="#ECBFA8" />
    <path
      d="M62.7779 245.462C62.7779 245.462 55.668 234.294 57.3608 232.952C59.2099 231.48 66.2286 240.458 66.2286 240.458L62.7779 245.462Z"
      fill="#ECBFA8" />
    <path d="M133.642 266.285L139.215 237.148L121.48 234.62L111.844 262.311L133.642 266.285Z" fill="#ECBFA8" />
    <path
      d="M156.235 447.987C156.196 447.987 156.17 447.987 156.131 447.974L119.969 442.241L120.998 447.153C121.037 447.336 120.985 447.531 120.868 447.674C120.751 447.818 120.568 447.909 120.386 447.909H99.8116C99.5121 447.909 99.2517 447.688 99.1996 447.388L96.6343 433.158C96.5692 432.819 96.8036 432.494 97.1421 432.428C97.4807 432.363 97.8063 432.598 97.8714 432.937L100.332 446.645H119.605L118.55 441.602C118.511 441.407 118.563 441.185 118.706 441.042C118.849 440.898 119.058 440.82 119.253 440.859L153.227 446.254L135.517 435.321C135.218 435.139 135.127 434.748 135.309 434.461C135.491 434.161 135.882 434.07 136.168 434.253L156.534 446.827C156.795 446.984 156.899 447.297 156.795 447.583C156.73 447.818 156.495 447.987 156.235 447.987Z"
      fill="#0A061E" />
    <path d="M118.98 441.289H98.9522L99.6944 446.984L120.165 447.283L118.98 441.289Z" fill="#0A061E" />
    <path
      d="M204.298 256.759C201.525 249.723 207.814 243.715 215.692 246.243C223.714 248.824 224.951 255.417 223.427 261.216C221.448 268.748 212.033 267.171 212.033 267.171C212.033 267.171 207.189 264.096 204.298 256.759Z"
      fill="#5061FA" />
    <path
      d="M197.853 274.052C197.579 274.052 197.332 273.869 197.254 273.595L195.86 268.631C195.808 268.448 195.847 268.253 195.951 268.096C196.056 267.94 196.225 267.849 196.42 267.836L209.702 266.846C210.054 266.819 210.353 267.08 210.379 267.419C210.406 267.758 210.145 268.07 209.806 268.096L197.293 269.035L198.478 273.257C198.569 273.595 198.373 273.934 198.048 274.025C197.97 274.052 197.918 274.052 197.853 274.052Z"
      fill="#0A061E" />
    <path
      d="M171.692 302.224C171.392 302.224 171.119 302.003 171.08 301.69L167.017 275.706C166.991 275.537 167.043 275.355 167.147 275.211C167.264 275.068 167.421 274.99 167.603 274.977L199.819 273.191C200.17 273.178 200.457 273.439 200.483 273.778C200.496 274.13 200.236 274.416 199.897 274.442L168.384 276.188L172.252 300.908L189.102 299.37C189.44 299.344 189.753 299.592 189.779 299.944C189.805 300.282 189.558 300.595 189.206 300.621L171.77 302.211C171.731 302.211 171.718 302.224 171.692 302.224Z"
      fill="#0A061E" />
    <path
      d="M234.717 297.859C234.392 297.859 234.118 297.611 234.092 297.273C234.066 296.921 234.326 296.634 234.678 296.608L259.406 294.888L251.736 272.11L222.099 274.26C221.76 274.286 221.448 274.026 221.435 273.674C221.409 273.335 221.669 273.022 222.021 273.009L252.153 270.833C252.44 270.807 252.7 270.989 252.791 271.263L260.878 295.266C260.943 295.448 260.917 295.657 260.8 295.813C260.695 295.969 260.513 296.074 260.318 296.087L234.782 297.872C234.756 297.859 234.743 297.859 234.717 297.859Z"
      fill="#0A061E" />
    <path
      d="M253.559 333.954C253.546 333.954 253.533 333.954 253.52 333.954L184.974 330.266C184.635 330.253 184.375 329.966 184.375 329.628L184.935 300.79C184.948 300.452 185.221 300.178 185.56 300.178H185.573C185.924 300.191 186.198 300.465 186.185 300.816L185.638 329.054L252.492 332.651L234.548 297.324C234.391 297.011 234.509 296.634 234.821 296.477C235.134 296.321 235.511 296.438 235.668 296.751L254.106 333.042C254.211 333.237 254.198 333.485 254.067 333.667C253.963 333.85 253.768 333.954 253.559 333.954Z"
      fill="#0A061E" />
    <path
      d="M124.11 115.701C123.967 115.701 123.824 115.649 123.706 115.558C123.485 115.375 101.4 97.0278 97.3765 93.3922C94.2252 90.5384 92.3371 87.3589 91.7901 83.9318C91.3083 80.9347 91.8943 77.7552 93.483 74.732C95.2018 71.4743 97.3765 69.3373 100.319 68.0342C102.989 66.8484 106.283 66.3271 111.023 66.3271H148.708C149.06 66.3271 149.333 66.6138 149.333 66.9526C149.333 67.2914 149.047 67.5781 148.708 67.5781H111.023C106.466 67.5781 103.327 68.0733 100.827 69.1809C98.1448 70.3667 96.1655 72.3213 94.5898 75.3184C91.3995 81.3778 92.6886 87.4631 98.2099 92.454C101.869 95.7638 120.62 111.362 123.98 114.163L141.611 89.8999L121.818 78.4979C121.519 78.3285 121.415 77.9376 121.584 77.6379C121.753 77.3382 122.144 77.2339 122.443 77.4033L142.835 89.1572C142.992 89.2484 143.096 89.3917 143.135 89.5741C143.174 89.7435 143.135 89.926 143.031 90.0693L124.618 115.44C124.514 115.584 124.358 115.675 124.188 115.688C124.162 115.701 124.136 115.701 124.11 115.701Z"
      fill="#0A061E" />
    <path
      d="M159.425 77.5725C165.233 77.5725 169.947 72.8553 169.947 67.0436C169.947 61.2318 165.233 56.5146 159.425 56.5146C153.618 56.5146 148.904 61.2318 148.904 67.0436C148.904 72.8553 153.618 77.5725 159.425 77.5725Z"
      fill="#ECBFA8" />
    <path
      d="M158.071 54.2474C155.128 55.2768 154.646 55.8372 152.771 55.342C150.154 54.6514 148.813 50.9767 145.44 50.4033C141.82 49.7908 138.825 51.8367 138.213 54.6774C137.471 58.0785 139.32 61.2449 143.265 61.8835C147.914 62.6392 149.503 59.9679 152.68 60.2676C156.873 60.6716 156.391 66.9003 164.569 67.7343C164.569 67.7343 166.548 69.2198 168.736 70.5099C168.736 70.5099 171.575 67.3434 171.405 62.4698C171.197 56.4366 164.009 52.1755 158.071 54.2474Z"
      fill="#0A061E" />
    <path
      d="M97.5069 270.872C97.5069 270.872 98.7961 266.168 99.1867 264.721C100.02 261.529 97.8715 260.747 96.4261 263.105C94.9807 265.464 92.9363 269.464 92.9363 269.464L97.5069 270.872Z"
      fill="#ECBFA8" />
    <path
      d="M206.577 257.554L217.125 247.039C217.125 247.039 222.125 249.632 223.375 254.779C224.716 260.278 222.333 264.37 223.818 268.162C225.458 272.331 230.993 273.322 234.378 280.358C237.946 287.799 235.108 292.686 237.152 298.015C239.131 303.175 244.483 301.781 246.866 312.297H214.117C213.726 305.951 208.374 304.166 207.97 295.839C207.632 288.711 211.734 285.727 211.343 279.968C210.991 274.82 208.166 273.817 206.186 268.657C204.337 263.848 206.577 257.554 206.577 257.554Z"
      fill="#5061FA" />
    <path
      d="M121.402 235.246C121.402 235.246 126.142 219.205 128.655 219.765C131.494 220.39 128.082 233.356 127.288 236.04C125.113 235.988 121.402 235.246 121.402 235.246Z"
      fill="#ECBFA8" />
    <path
      d="M125.934 237.565C125.934 237.565 130.218 215.621 133.838 216.898C137.458 218.188 131.259 238.816 131.259 238.816L125.934 237.565Z"
      fill="#ECBFA8" />
    <path
      d="M134.632 239.011C134.632 239.011 139.88 220.364 137.314 219.283C135.205 218.397 130.478 231.584 128.798 237.461L134.632 239.011Z"
      fill="#ECBFA8" />
    <path
      d="M138.591 240.197C138.591 240.197 139.216 237.5 139.737 234.347C140.635 228.887 140.882 224.169 139.593 223.935C136.911 223.453 133.447 238.816 133.447 238.816L138.591 240.197Z"
      fill="#ECBFA8" />
    <path
      d="M197.735 67.3306H172.265C171.913 67.3306 171.64 67.0439 171.64 66.7051C171.64 66.3663 171.926 66.0796 172.265 66.0796H197.735C198.087 66.0796 198.361 66.3663 198.361 66.7051C198.361 67.0439 198.087 67.3306 197.735 67.3306Z"
      fill="#0A061E" />
    <path
      d="M212.919 142.948H183.581C183.281 142.948 183.021 142.74 182.969 142.44L173.45 93.848C173.384 93.5092 173.606 93.1835 173.944 93.1183C174.283 93.0531 174.609 93.2747 174.674 93.6135L184.088 141.697H212.15L203.96 97.8094C203.894 97.4706 204.116 97.1448 204.454 97.0797C204.793 97.0145 205.119 97.236 205.184 97.5748L213.505 142.205C213.544 142.388 213.492 142.583 213.374 142.727C213.283 142.857 213.114 142.948 212.919 142.948Z"
      fill="#0A061E" />
    <path
      d="M249.783 73.3245C249.575 73.3245 249.367 73.2202 249.25 73.0117L245.786 67.1609C245.669 66.9524 245.669 66.6918 245.812 66.4963C245.942 66.3009 246.189 66.1966 246.424 66.2227L251.58 67.0176C251.919 67.0697 252.153 67.3955 252.101 67.7343C252.049 68.0731 251.724 68.3076 251.385 68.2555L247.544 67.6691L250.33 72.3732C250.513 72.6729 250.409 73.0508 250.109 73.2333C250.005 73.2984 249.901 73.3245 249.783 73.3245Z"
      fill="#0A061E" />
    <path
      d="M67.036 389.661L53.8189 394.704L50.1338 411.918L55.7461 410.68L48.0894 440.612L73.7813 411.866L67.036 389.661Z"
      fill="#0A061E" />
    <path
      d="M230.368 393.857C230.055 393.857 229.782 393.622 229.743 393.297L224.99 349.461C224.964 349.161 225.133 348.888 225.419 348.796C234.157 345.877 234.287 338.385 234.105 336.156C234.079 335.818 234.339 335.505 234.678 335.479C235.029 335.453 235.329 335.713 235.355 336.052C235.576 338.971 234.951 341.76 233.532 344.105C231.956 346.724 229.521 348.64 226.292 349.813L230.993 393.153C231.032 393.492 230.784 393.805 230.433 393.844C230.407 393.857 230.381 393.857 230.368 393.857Z"
      fill="white" />
    <path
      d="M173.958 246.621L175.963 244.901C175.963 244.901 173.945 225.668 171.379 224.808C168.801 223.948 169.66 245.188 169.66 245.188L173.958 246.621Z"
      fill="#ECBFA8" />
    <path
      d="M155.415 244.198C155.415 244.198 153.123 234.282 154.659 233.265C156.365 232.145 160.259 243.52 160.259 243.52L155.415 244.198Z"
      fill="#ECBFA8" />
    <path
      d="M164.699 245.462L170.715 244.889C170.715 244.889 168.71 223.935 165.272 223.935C161.834 223.935 164.699 245.462 164.699 245.462Z"
      fill="#ECBFA8" />
    <path
      d="M158.436 246.165C158.436 246.165 158.449 227.31 161.079 227.205C163.723 227.101 164.842 247.143 164.842 247.143L158.436 246.165Z"
      fill="#ECBFA8" />
    <path
      d="M259.901 246.048C259.901 246.048 256.932 230.776 254.549 230.177C252.166 229.577 254.406 245.983 254.406 245.983L259.901 246.048Z"
      fill="#ECBFA8" />
    <path
      d="M248.963 246.061C248.963 246.061 246.02 226.815 248.989 227.01C251.958 227.206 255.734 246.648 255.734 246.648L248.963 246.061Z"
      fill="#ECBFA8" />
    <path
      d="M242.752 245.423C242.752 245.423 242.244 225.029 244.34 225.029C246.437 225.029 249.38 240.862 250.421 245.709L242.752 245.423Z"
      fill="#ECBFA8" />
    <path
      d="M239.314 245.709C239.314 245.709 237.23 229.59 239.223 229.017C241.215 228.444 244.158 244.563 244.158 244.563L239.314 245.709Z"
      fill="#ECBFA8" />
    <path
      d="M240.759 325.51C240.59 325.51 240.421 325.445 240.29 325.302L236.332 320.936C236.097 320.676 236.123 320.285 236.371 320.05C236.631 319.816 237.022 319.842 237.256 320.089L241.215 324.455C241.449 324.715 241.423 325.106 241.176 325.341C241.072 325.458 240.915 325.51 240.759 325.51Z"
      fill="#0A061E" />
    <path
      d="M196.277 318.082C195.951 318.082 195.678 317.835 195.652 317.509L195.261 313.144C195.235 312.805 195.483 312.492 195.834 312.466C196.173 312.44 196.485 312.688 196.511 313.04L196.902 317.405C196.928 317.744 196.681 318.056 196.329 318.082C196.303 318.082 196.29 318.082 196.277 318.082Z"
      fill="#0A061E" />
    <path
      d="M201.499 303.267C201.342 303.267 201.173 303.202 201.056 303.084L198.399 300.452C198.152 300.205 198.152 299.814 198.399 299.566C198.647 299.318 199.037 299.318 199.285 299.566L201.941 302.198C202.189 302.446 202.189 302.837 201.941 303.084C201.824 303.202 201.668 303.267 201.499 303.267Z"
      fill="#0A061E" />
    <path
      d="M177.239 285.167C176.991 285.167 176.744 285.011 176.653 284.763C176.536 284.437 176.692 284.072 177.018 283.955L180.195 282.769C180.52 282.652 180.885 282.808 181.002 283.134C181.119 283.46 180.963 283.825 180.638 283.942L177.46 285.128C177.395 285.154 177.317 285.167 177.239 285.167Z"
      fill="#0A061E" />
    <path
      d="M242.856 284.268C242.765 284.268 242.66 284.242 242.582 284.202C242.27 284.046 242.153 283.668 242.296 283.355L243.884 280.176C244.041 279.863 244.418 279.746 244.731 279.889C245.043 280.046 245.161 280.423 245.017 280.736L243.429 283.916C243.298 284.137 243.077 284.268 242.856 284.268Z"
      fill="#0A061E" />
    <path
      d="M168.046 71.6567C170.429 71.6567 172.356 69.7281 172.356 67.3435C172.356 64.9588 170.429 63.0303 168.046 63.0303C165.663 63.0303 163.735 64.9588 163.735 67.3435C163.735 69.7281 165.676 71.6567 168.046 71.6567Z"
      fill="#ECBFA8" />
    <path
      d="M147.211 96.6494C147.211 96.6494 162.824 90.994 164.152 92.9356C165.467 94.8512 153.839 104.038 153.839 104.038L147.211 96.6494Z"
      fill="#ECBFA8" />
    <path
      d="M154.985 97.3926C154.985 97.3926 171.509 105.771 170.064 108.873C168.619 111.974 148.995 104.533 148.995 104.533L154.985 97.3926Z"
      fill="#ECBFA8" />
    <path
      d="M212.372 246.999C212.229 247.599 212.619 251.391 216.044 252.186C220.107 253.124 221.891 250.27 221.891 250.27C221.891 250.27 219.859 247.442 217.138 246.752C214.364 246.048 212.489 246.556 212.372 246.999Z"
      fill="#0A061E" />
    <path
      d="M217.776 249.097C222.516 249.097 226.357 245.253 226.357 240.523C226.357 235.793 222.516 231.949 217.776 231.949C213.036 231.949 209.208 235.793 209.208 240.523C209.208 245.253 213.049 249.097 217.776 249.097Z"
      fill="#5061FA" />
    <path
      d="M221.448 233.656C221.448 233.656 220.849 235.428 222.372 236.783C223.896 238.139 225.836 237.513 225.836 237.513C225.836 237.513 224.977 234.894 223.336 234.06C221.695 233.213 221.448 233.656 221.448 233.656Z"
      fill="#0A061E" />
    <path
      d="M228.441 233.369C230.524 231.284 230.524 227.909 228.441 225.824C226.357 223.74 222.984 223.74 220.901 225.824C218.818 227.909 218.818 231.284 220.901 233.369C222.984 235.454 226.357 235.454 228.441 233.369Z"
      fill="#5061FA" />
    <path d="M253.755 273.23L265.839 293.011H259.732L253.755 273.23Z" fill="#0A061E" />
    <path d="M68.6246 352.667L140.414 338.528L129.293 281.245L88.4176 289.102L70.695 291.969L68.6246 352.667Z"
      fill="#F5FFF5" />
    <path
      d="M245.825 373.229C245.799 373.229 245.76 373.229 245.734 373.229C245.395 373.177 245.148 372.864 245.2 372.525C245.434 370.922 247.049 369.424 248.117 368.59C245.291 367.782 241.033 369.32 240.981 369.346C240.655 369.463 240.29 369.294 240.173 368.968C240.056 368.642 240.225 368.277 240.551 368.16C240.798 368.069 246.515 365.997 249.705 367.912C249.887 368.03 250.005 368.225 250.005 368.447C250.005 368.668 249.9 368.864 249.718 368.981C248.872 369.515 246.645 371.235 246.437 372.708C246.398 372.994 246.137 373.229 245.825 373.229Z"
      fill="white" />
    <path
      d="M116.792 377.686C116.519 377.686 116.258 377.503 116.193 377.217C115.099 373.125 111.622 371.639 111.596 371.626C111.349 371.522 111.193 371.275 111.206 371.001C111.219 370.727 111.414 370.506 111.674 370.441C115.164 369.581 117.638 370.519 119.097 371.457C120.686 372.473 121.454 373.711 121.48 373.763C121.662 374.063 121.571 374.441 121.272 374.623C120.972 374.806 120.594 374.715 120.412 374.415C120.308 374.259 118.237 371.014 113.615 371.379C114.904 372.317 116.636 374.05 117.391 376.891C117.482 377.23 117.287 377.568 116.948 377.66C116.896 377.686 116.844 377.686 116.792 377.686Z"
      fill="#0A061E" />
    <path d="M96.4262 413.064L95.2281 407.891L127.444 395.147L130.022 405.78L96.4262 413.064Z" fill="#0A061E" />
    <path
      d="M84.9801 290.222C84.6806 290.222 84.4201 290.014 84.368 289.714C84.3029 289.375 84.5243 289.05 84.8629 288.985L107.156 284.815C107.495 284.749 107.82 284.971 107.885 285.31C107.95 285.649 107.729 285.974 107.391 286.04L85.0973 290.209C85.0582 290.209 85.0191 290.222 84.9801 290.222Z"
      fill="#0A061E" />
    <path
      d="M69.2237 418.446C69.0544 418.446 68.8851 418.381 68.7549 418.238L66.3719 415.566C66.1375 415.306 66.1636 414.915 66.424 414.68C66.6844 414.446 67.0751 414.472 67.3095 414.732L69.6925 417.404C69.9268 417.664 69.9008 418.055 69.6404 418.29C69.5232 418.394 69.3669 418.446 69.2237 418.446Z"
      fill="white" />
    <path
      d="M65.9551 421.13C65.7858 421.13 65.6166 421.065 65.4863 420.922L63.1034 418.251C62.869 417.99 62.895 417.599 63.1554 417.364C63.4159 417.13 63.8065 417.156 64.0409 417.417L66.4239 420.088C66.6583 420.349 66.6323 420.739 66.3718 420.974C66.2416 421.078 66.0984 421.13 65.9551 421.13Z"
      fill="white" />
    <path
      d="M57.3348 407.149C57.2957 407.149 57.2697 407.149 57.2306 407.136C56.8921 407.084 56.6577 406.758 56.7098 406.419L58.4937 395.408C58.5458 395.069 58.8714 394.835 59.2099 394.887C59.5485 394.939 59.7829 395.265 59.7308 395.603L57.9468 406.614C57.8947 406.927 57.6343 407.149 57.3348 407.149Z"
      fill="white" />
    <path
      d="M251.177 333.394C251.177 333.394 251.841 338.345 247.869 344.626C244.301 350.282 236.306 351.572 236.306 351.572L238.285 332.729L251.177 333.394Z"
      fill="#0A061E" />
    <path
      d="M90.9311 268.174C94.473 268.722 98.3665 272.344 97.7675 277.1C97.1685 281.857 87.0636 323.933 87.0636 323.933L55.551 327.803C55.551 327.803 78.0005 278.013 81.1257 272.944C83.4957 269.06 87.0636 267.575 90.9311 268.174Z"
      fill="#0A061E" />
    <path
      d="M204.572 264.005C206.173 264.005 207.476 262.402 207.476 260.434C207.476 258.467 206.173 256.864 204.572 256.864C202.97 256.864 201.668 258.467 201.668 260.434C201.668 262.402 202.97 264.005 204.572 264.005Z"
      fill="#ECBFA8" />
    <path
      d="M73.6771 312.206L55.5378 314.291C55.5378 314.291 78.4301 276.501 81.1126 272.931C83.795 269.361 90.9179 270.546 90.9179 270.546L73.6771 312.206Z"
      fill="#0A061E" />
    <path d="M98.6528 279.772L97.4678 303.579L86.764 305.664L95.749 279.811L98.6528 279.772Z" fill="#0A061E" />
    <path
      d="M101.843 279.407C102.481 277.7 101.596 275.798 99.8769 275.159C98.1581 274.521 96.2439 275.381 95.6188 277.088C94.9807 278.795 95.8662 280.697 97.5851 281.336C99.304 281.974 101.205 281.114 101.843 279.407Z"
      fill="#ECBFA8" />
    <path
      d="M128.095 291.408C128.043 291.408 128.004 291.408 127.952 291.395C127.613 291.317 127.405 290.978 127.483 290.64L128.668 285.584C128.746 285.245 129.085 285.036 129.423 285.115C129.762 285.193 129.97 285.532 129.892 285.87L128.707 290.926C128.629 291.213 128.368 291.408 128.095 291.408Z"
      fill="#0A061E" />
    <path d="M289.474 432.767L285.658 429.274L296.219 417.82L299.891 421.612L289.474 432.767Z" fill="#0A061E" />
    <path
      d="M124.514 324.429C124.215 324.429 123.954 324.22 123.902 323.907C123.837 323.569 124.071 323.243 124.41 323.178L137.497 320.793C137.835 320.728 138.161 320.963 138.226 321.301C138.291 321.64 138.057 321.966 137.718 322.031L124.631 324.416C124.592 324.429 124.553 324.429 124.514 324.429Z"
      fill="#0A061E" />
    <path
      d="M192.253 145.294C192.253 145.294 185.169 148.46 186.758 154.416C188.594 161.322 197.071 159.576 197.071 159.576L192.253 145.294Z"
      fill="#ECBFA8" />
    <path
      d="M199.441 165.922C199.441 165.922 206.434 165.661 209.755 164.332C215.705 161.947 215.302 155.21 214.117 151.236C212.932 147.274 206.981 148.46 206.981 148.46L194.298 150.441L199.441 165.922Z"
      fill="#ECBFA8" />
    <path
      d="M192.305 155.21H199.441C199.441 155.21 203.504 172.372 200.73 173.558C197.957 174.744 193.1 160.371 193.1 160.371L192.305 155.21Z"
      fill="#ECBFA8" />
    <path
      d="M44.5735 361.137C48.2587 361.137 51.2407 358.152 51.2407 354.465C51.2407 350.777 48.2587 347.793 44.5735 347.793C40.8884 347.793 37.9064 350.777 37.9064 354.465C37.9064 358.152 40.8884 361.137 44.5735 361.137Z"
      fill="#5061FA" />
    <path d="M189.011 412.66L182.799 410.719L180.859 416.935L187.07 418.876L189.011 412.66Z" fill="#7AEB9B" />
    <path
      d="M308.641 298.223C308.524 298.223 308.394 298.184 308.29 298.119C308.108 298.002 308.003 297.806 308.003 297.598L308.055 287.212C308.055 286.991 308.173 286.795 308.355 286.678C308.537 286.561 308.772 286.561 308.967 286.665L319.827 292.346C320.035 292.464 320.166 292.685 320.166 292.92C320.153 293.167 320.009 293.376 319.788 293.467L308.863 298.184C308.811 298.21 308.72 298.223 308.641 298.223ZM309.319 288.242L309.279 296.647L318.108 292.829L309.319 288.242Z"
      fill="#F5FFF5" />
    <path d="M140.973 92.0366L134.137 111.075L129.241 107.999L140.973 92.0366Z" fill="#0A061E" />
    <path d="M189.141 142.323L189.74 145.294L213.231 147.978L212.137 142.622L189.141 142.323Z" fill="#0A061E" />
    <path
      d="M201.329 164.67C201.043 164.67 200.782 164.475 200.717 164.175L199.675 159.562C199.597 159.223 199.806 158.885 200.144 158.806C200.483 158.728 200.821 158.937 200.899 159.276L201.941 163.888C202.019 164.227 201.811 164.566 201.472 164.644C201.42 164.657 201.368 164.67 201.329 164.67Z"
      fill="#0A061E" />
    <path d="M154.347 72.3213L155.428 76.7778C153.37 76.0481 152.368 74.8232 152.368 74.8232L154.347 72.3213Z"
      fill="#0A061E" />
    <path
      d="M167.434 69.259C167.108 69.259 166.835 68.9983 166.809 68.6726C166.757 67.7995 167.069 66.9525 167.681 66.301C168.176 65.7797 168.814 65.4409 169.322 65.4409C169.673 65.4409 169.947 65.7276 169.947 66.0664C169.947 66.4182 169.673 66.6919 169.322 66.6919C169.231 66.6919 168.892 66.8352 168.554 67.2131C168.306 67.4868 168.02 67.9559 168.059 68.6074C168.085 68.9593 167.824 69.2459 167.473 69.272C167.46 69.259 167.447 69.259 167.434 69.259Z"
      fill="#0A061E" />
    <path
      d="M158.709 69.8972C158.488 69.8972 158.267 69.7799 158.149 69.5584C157.863 69.0111 156.951 68.959 156.587 69.1414C156.274 69.2978 155.897 69.1675 155.74 68.8547C155.584 68.542 155.714 68.1641 156.027 68.0077C156.912 67.5647 158.605 67.721 159.256 68.959C159.412 69.2587 159.308 69.6496 158.996 69.806C158.918 69.8711 158.813 69.8972 158.709 69.8972Z"
      fill="#0A061E" />
    <path
      d="M150.479 67.8515C150.336 67.8515 150.18 67.7994 150.063 67.6952L148.187 66.0272C147.927 65.7927 147.901 65.4017 148.135 65.1411C148.37 64.8805 148.76 64.8545 149.021 65.089L150.896 66.7569C151.156 66.9915 151.182 67.3824 150.948 67.643C150.831 67.7864 150.662 67.8515 150.479 67.8515Z"
      fill="#0A061E" />
    <path
      d="M160.063 75.6961C159.725 75.6961 159.438 75.4224 159.438 75.0706C159.438 74.7188 159.712 74.4451 160.063 74.4321C161.131 74.4191 161.951 73.6893 162.056 72.6599C162.095 72.3211 162.394 72.0605 162.746 72.0996C163.084 72.1387 163.345 72.4384 163.306 72.7902C163.123 74.4582 161.769 75.6831 160.063 75.6961Z"
      fill="#0A061E" />
    <path
      d="M120.959 242.778C120.959 242.778 115.503 230.385 117.587 228.3C119.67 226.216 126.611 239.611 126.611 239.611L120.959 242.778Z"
      fill="#ECBFA8" />
    <path
      d="M127.587 231.506C127.535 231.506 127.483 231.493 127.431 231.48C127.092 231.389 126.897 231.05 126.988 230.711L128.824 223.87C128.915 223.531 129.254 223.335 129.592 223.427C129.931 223.518 130.126 223.857 130.035 224.195L128.199 231.037C128.121 231.323 127.874 231.506 127.587 231.506Z"
      fill="#0A061E" />
    <path
      d="M132.158 232.405C132.106 232.405 132.067 232.405 132.014 232.392C131.676 232.314 131.468 231.975 131.546 231.636L133.629 222.905C133.707 222.567 134.046 222.358 134.384 222.436C134.723 222.515 134.931 222.853 134.853 223.192L132.77 231.923C132.692 232.209 132.431 232.405 132.158 232.405Z"
      fill="#0A061E" />
    <path
      d="M136.22 233.343C136.168 233.343 136.129 233.343 136.077 233.33C135.739 233.252 135.53 232.913 135.608 232.574L136.898 227.127C136.976 226.788 137.314 226.58 137.653 226.658C137.991 226.736 138.2 227.075 138.122 227.414L136.832 232.861C136.754 233.147 136.507 233.343 136.22 233.343Z"
      fill="#0A061E" />
    <path
      d="M135.322 111.818C138.005 113.603 142.015 115.987 144.385 117.317C146.768 118.659 151.378 118.802 153.305 117.173C155.232 115.531 161.925 105.719 161.925 105.719L148.396 98.8779L135.322 111.818Z"
      fill="#ECBFA8" />
    <path
      d="M192.11 157.673C191.837 157.673 191.576 157.49 191.498 157.204L190.613 153.777C190.521 153.438 190.73 153.099 191.055 153.008C191.394 152.917 191.732 153.125 191.824 153.451L192.709 156.878C192.8 157.217 192.592 157.556 192.266 157.647C192.214 157.673 192.162 157.673 192.11 157.673Z"
      fill="#0A061E" />
    <path
      d="M206.824 163.628C206.798 163.628 206.785 163.628 206.759 163.628C206.421 163.589 206.16 163.289 206.199 162.937C206.317 161.817 205.718 159.51 205.483 158.715C205.379 158.39 205.574 158.038 205.9 157.933C206.225 157.829 206.577 158.025 206.681 158.35C206.72 158.481 207.606 161.465 207.449 163.055C207.423 163.38 207.15 163.628 206.824 163.628Z"
      fill="#0A061E" />
    <path
      d="M212.033 161.986C212.007 161.986 211.981 161.986 211.955 161.986C211.617 161.947 211.369 161.634 211.408 161.282C211.512 160.396 211.031 158.142 210.822 157.347C210.744 157.008 210.939 156.67 211.278 156.591C211.617 156.513 211.955 156.709 212.033 157.047C212.111 157.36 212.802 160.175 212.645 161.439C212.606 161.752 212.346 161.986 212.033 161.986Z"
      fill="#0A061E" />
    <path
      d="M126.715 81.2603C126.702 81.2603 126.689 81.2603 126.675 81.2603C126.324 81.2472 126.063 80.9475 126.09 80.5957C126.181 78.9929 125.855 77.8592 125.022 76.8167C124.8 76.5431 124.852 76.1522 125.126 75.9307C125.399 75.7091 125.79 75.7612 126.011 76.0349C127.04 77.325 127.457 78.7583 127.353 80.6739C127.314 80.9997 127.04 81.2603 126.715 81.2603Z"
      fill="#0A061E" />
    <path
      d="M69.3147 353.761C69.0283 353.761 68.7548 353.553 68.7027 353.253C68.6376 352.914 68.859 352.588 69.1975 352.51L87.0373 348.94C87.3759 348.874 87.7015 349.096 87.7796 349.435C87.8447 349.774 87.6233 350.099 87.2848 350.178L69.4449 353.748C69.3929 353.761 69.3538 353.761 69.3147 353.761Z"
      fill="#0A061E" />
    <path
      d="M157.173 71.1091C157.693 71.1091 158.11 70.4836 158.11 69.7148C158.11 68.9459 157.693 68.3335 157.173 68.3335C156.652 68.3335 156.235 68.959 156.235 69.7148C156.235 70.4966 156.652 71.1091 157.173 71.1091Z"
      fill="#0A061E" />
    <path
      d="M149.529 69.0111C150.05 69.0111 150.466 68.3986 150.466 67.6298C150.466 66.874 150.05 66.2485 149.529 66.2485C149.008 66.2485 148.591 66.861 148.591 67.6298C148.604 68.3856 149.021 69.0111 149.529 69.0111Z"
      fill="#0A061E" />
    <path
      d="M159.308 107.843C159.256 107.843 159.191 107.83 159.139 107.817C157.746 107.413 154.855 106.358 154.738 106.319C154.412 106.201 154.243 105.837 154.36 105.511C154.477 105.185 154.842 105.016 155.167 105.133C155.193 105.146 158.136 106.214 159.491 106.605C159.829 106.697 160.011 107.048 159.92 107.374C159.829 107.661 159.582 107.843 159.308 107.843Z"
      fill="#0A061E" />
    <path
      d="M156.04 112.104C156.027 112.104 156.013 112.104 155.987 112.104C154.633 112 151.677 110.918 151.56 110.879C151.235 110.762 151.065 110.397 151.182 110.071C151.3 109.746 151.664 109.576 151.99 109.693C152.797 109.993 155.102 110.775 156.079 110.84C156.417 110.866 156.678 111.166 156.652 111.518C156.639 111.857 156.365 112.104 156.04 112.104Z"
      fill="#0A061E" />
    <path
      d="M153.058 116.47C153.031 116.47 152.992 116.47 152.966 116.457C151.651 116.261 148.943 115.479 148.825 115.453C148.487 115.362 148.305 115.01 148.396 114.684C148.487 114.346 148.838 114.163 149.164 114.254C149.19 114.267 151.912 115.036 153.149 115.232C153.487 115.284 153.722 115.61 153.67 115.948C153.63 116.248 153.37 116.47 153.058 116.47Z"
      fill="#0A061E" />
    <path
      d="M203.999 262.741C203.712 262.741 203.452 262.532 203.387 262.246C203.322 261.92 203.517 261.607 203.829 261.516C203.869 261.49 204.051 261.36 204.077 260.773C204.09 260.473 203.973 260.382 203.973 260.382C203.647 260.278 203.452 259.939 203.556 259.6C203.66 259.275 203.999 259.079 204.337 259.183C204.728 259.301 205.366 259.77 205.34 260.812C205.301 262.141 204.572 262.637 204.142 262.728C204.09 262.741 204.038 262.741 203.999 262.741Z"
      fill="#0A061E" />
    <path
      d="M99.1344 280.059C98.7698 280.059 98.4182 279.928 98.1318 279.681C97.5588 279.186 97.2854 278.313 97.4416 277.387C97.4937 277.049 97.8193 276.814 98.1578 276.866C98.4964 276.918 98.7308 277.244 98.6787 277.583C98.5875 278.13 98.7568 278.547 98.9391 278.716C99.0303 278.795 99.1214 278.808 99.2386 278.769C99.5641 278.664 99.9157 278.834 100.033 279.16C100.15 279.485 99.9678 279.837 99.6423 279.954C99.473 280.033 99.3037 280.059 99.1344 280.059Z"
      fill="#0A061E" />
    <path
      d="M260.018 14.2036H256.047C255.695 14.2036 255.422 13.9169 255.422 13.5781C255.422 13.2393 255.708 12.9526 256.047 12.9526H260.018C260.37 12.9526 260.643 13.2393 260.643 13.5781C260.643 13.9169 260.357 14.2036 260.018 14.2036Z"
      fill="#0A061E" />
    <path
      d="M274.147 447.727C274.147 447.727 269.251 447.727 264.251 447.727C257.427 447.727 257.01 439.621 263.508 438.357C270.202 437.054 275.098 436.272 275.098 436.272L274.147 447.727Z"
      fill="#5061FA" />
    <path
      d="M165.194 255.496C163.215 255.496 161.6 253.88 161.6 251.899C161.6 249.919 163.215 248.303 165.194 248.303C167.173 248.303 168.788 249.919 168.788 251.899C168.788 253.88 167.173 255.496 165.194 255.496ZM165.194 249.554C163.905 249.554 162.85 250.609 162.85 251.899C162.85 253.189 163.905 254.245 165.194 254.245C166.483 254.245 167.538 253.189 167.538 251.899C167.538 250.609 166.483 249.554 165.194 249.554Z"
      fill="#0A061E" />
    <path
      d="M168.697 251.834C168.384 251.834 168.111 251.586 168.072 251.274C168.033 250.935 168.293 250.622 168.632 250.583L178.411 249.632C178.75 249.606 179.062 249.853 179.101 250.192C179.14 250.531 178.88 250.844 178.541 250.883L168.762 251.834C168.736 251.834 168.723 251.834 168.697 251.834Z"
      fill="#0A061E" />
    <path
      d="M156.17 253.398C155.844 253.398 155.571 253.15 155.545 252.824C155.519 252.485 155.766 252.173 156.118 252.147L159.269 251.86C159.621 251.821 159.92 252.081 159.946 252.433C159.972 252.772 159.725 253.085 159.373 253.111L156.222 253.398C156.209 253.398 156.196 253.398 156.17 253.398Z"
      fill="#0A061E" />
    <path
      d="M86.829 186.941C85.8914 186.941 85.0059 186.602 84.3939 185.911C83.7558 185.181 83.4954 184.204 83.6907 183.149C83.873 182.145 84.4199 181.181 85.2663 180.438C87.0243 178.874 89.5114 178.77 90.8006 180.217C92.0898 181.663 91.6991 184.126 89.9412 185.69C89.0036 186.524 87.8707 186.941 86.829 186.941ZM88.3525 180.451C87.6103 180.451 86.7769 180.764 86.0867 181.389C85.4617 181.95 85.045 182.653 84.9148 183.383C84.7976 184.061 84.9408 184.66 85.3184 185.103C86.1518 186.041 87.8316 185.885 89.0817 184.777C90.3318 183.67 90.6704 182.002 89.837 181.077C89.4854 180.647 88.9515 180.451 88.3525 180.451Z"
      fill="#0A061E" />
    <path
      d="M97.7933 186.953C96.8167 186.953 95.9573 186.588 95.3713 185.924C94.0821 184.477 94.4728 182.015 96.2307 180.451C97.9887 178.887 100.476 178.783 101.765 180.229C102.403 180.959 102.663 181.936 102.468 182.992C102.286 183.995 101.739 184.96 100.893 185.702C100.059 186.445 99.0434 186.888 98.0147 186.94C97.9496 186.953 97.8715 186.953 97.7933 186.953ZM99.3299 180.451C98.5877 180.451 97.7543 180.764 97.0641 181.389C95.814 182.497 95.4755 184.165 96.3088 185.09C96.6865 185.52 97.2725 185.741 97.9626 185.702C98.7049 185.663 99.4471 185.324 100.072 184.777C100.697 184.217 101.114 183.513 101.244 182.783C101.361 182.106 101.218 181.506 100.84 181.063C100.463 180.646 99.9289 180.451 99.3299 180.451Z"
      fill="#0A061E" />
    <path
      d="M108.771 186.941C107.833 186.941 106.948 186.602 106.336 185.911C105.698 185.181 105.437 184.204 105.632 183.149C105.815 182.145 106.362 181.181 107.208 180.438C108.966 178.874 111.453 178.77 112.742 180.217C113.38 180.946 113.641 181.924 113.445 182.979C113.263 183.983 112.716 184.947 111.87 185.69C110.945 186.524 109.825 186.941 108.771 186.941ZM110.307 180.438C109.565 180.438 108.732 180.751 108.041 181.376C107.416 181.937 107 182.64 106.869 183.37C106.752 184.048 106.896 184.647 107.273 185.09C108.107 186.028 109.786 185.872 111.036 184.764C111.661 184.204 112.078 183.5 112.208 182.771C112.326 182.093 112.182 181.494 111.805 181.051C111.44 180.647 110.893 180.438 110.307 180.438Z"
      fill="#0A061E" />
    <path
      d="M119.748 186.953C118.81 186.953 117.925 186.614 117.313 185.924C116.675 185.207 116.414 184.217 116.61 183.161C116.792 182.158 117.339 181.194 118.185 180.451C119.956 178.887 122.43 178.783 123.72 180.229C124.358 180.946 124.618 181.936 124.423 182.992C124.24 183.995 123.694 184.96 122.847 185.702C121.91 186.536 120.79 186.953 119.748 186.953ZM121.272 180.451C120.529 180.451 119.696 180.764 119.006 181.389C118.381 181.949 117.964 182.653 117.834 183.383C117.717 184.06 117.86 184.66 118.237 185.09C119.071 186.028 120.751 185.885 122.001 184.764C122.626 184.204 123.042 183.5 123.173 182.77C123.29 182.093 123.147 181.493 122.769 181.063C122.404 180.646 121.871 180.451 121.272 180.451Z"
      fill="#0A061E" />
    <path
      d="M135.075 186.953C134.098 186.953 133.239 186.588 132.653 185.924C131.363 184.477 131.754 182.015 133.512 180.451C135.27 178.887 137.757 178.783 139.046 180.229C139.684 180.959 139.945 181.936 139.749 182.992C139.567 183.995 139.02 184.96 138.174 185.702C137.34 186.445 136.325 186.888 135.296 186.94C135.231 186.953 135.153 186.953 135.075 186.953ZM136.611 180.451C135.869 180.451 135.036 180.764 134.345 181.389C133.095 182.497 132.757 184.165 133.59 185.09C133.968 185.52 134.554 185.741 135.244 185.702C135.986 185.663 136.728 185.324 137.353 184.777C137.978 184.217 138.395 183.513 138.525 182.783C138.643 182.106 138.499 181.506 138.122 181.063C137.744 180.646 137.21 180.451 136.611 180.451Z"
      fill="#0A061E" />
    <path
      d="M146.052 186.941C145.114 186.941 144.229 186.602 143.617 185.911C142.328 184.465 142.718 182.002 144.476 180.438C146.247 178.874 148.721 178.77 150.011 180.217C150.649 180.933 150.909 181.924 150.714 182.979C150.531 183.983 149.985 184.947 149.138 185.69C148.227 186.524 147.107 186.941 146.052 186.941ZM147.589 180.438C146.846 180.438 146.013 180.751 145.323 181.376C144.073 182.484 143.734 184.152 144.567 185.077C145.401 186.015 147.081 185.872 148.331 184.751C148.956 184.191 149.373 183.487 149.503 182.758C149.62 182.08 149.477 181.481 149.099 181.051C148.721 180.647 148.188 180.438 147.589 180.438Z"
      fill="#0A061E" />
    <path
      d="M157.029 186.953C156.092 186.953 155.206 186.614 154.594 185.924C153.956 185.207 153.696 184.217 153.891 183.161C154.073 182.158 154.62 181.194 155.454 180.451C157.225 178.887 159.699 178.783 160.988 180.229C161.626 180.946 161.886 181.936 161.691 182.992C161.509 183.995 160.962 184.96 160.116 185.702C159.204 186.536 158.071 186.953 157.029 186.953ZM158.566 180.451C157.824 180.451 156.99 180.764 156.3 181.389C155.675 181.949 155.258 182.653 155.128 183.383C155.011 184.06 155.154 184.66 155.532 185.09C156.365 186.028 158.045 185.885 159.295 184.764C159.92 184.204 160.337 183.5 160.467 182.77C160.584 182.093 160.441 181.493 160.063 181.063C159.686 180.646 159.152 180.451 158.566 180.451Z"
      fill="#0A061E" />
    <path
      d="M167.994 186.953C167.017 186.953 166.158 186.588 165.572 185.924C164.934 185.207 164.673 184.217 164.869 183.161C165.051 182.158 165.598 181.194 166.444 180.451C167.278 179.708 168.293 179.265 169.322 179.213C170.39 179.148 171.34 179.513 171.978 180.242C172.616 180.959 172.877 181.949 172.682 183.005C172.499 184.008 171.952 184.973 171.106 185.715C170.273 186.458 169.257 186.901 168.228 186.953C168.15 186.953 168.072 186.953 167.994 186.953ZM169.53 180.451C169.478 180.451 169.426 180.451 169.374 180.451C168.632 180.49 167.89 180.829 167.265 181.376C166.639 181.936 166.223 182.64 166.093 183.37C165.975 184.047 166.119 184.647 166.496 185.077C166.874 185.507 167.46 185.728 168.15 185.689C168.892 185.65 169.634 185.311 170.26 184.764C170.885 184.204 171.301 183.5 171.431 182.77C171.549 182.093 171.405 181.493 171.028 181.063C170.676 180.659 170.155 180.451 169.53 180.451Z"
      fill="#0A061E" />
    <path
      d="M183.346 186.941C182.409 186.941 181.523 186.602 180.911 185.911C180.273 185.194 180.013 184.204 180.208 183.149C180.39 182.145 180.937 181.181 181.784 180.438C182.617 179.695 183.633 179.252 184.661 179.2C185.742 179.135 186.68 179.5 187.318 180.23C188.607 181.676 188.216 184.139 186.458 185.703C185.521 186.524 184.388 186.941 183.346 186.941ZM184.883 180.451C184.831 180.451 184.779 180.451 184.727 180.451C183.984 180.49 183.242 180.829 182.617 181.376C181.992 181.937 181.575 182.64 181.445 183.37C181.328 184.048 181.471 184.647 181.849 185.077C182.682 186.015 184.362 185.872 185.612 184.751C186.862 183.644 187.201 181.976 186.367 181.051C186.016 180.66 185.495 180.451 184.883 180.451Z"
      fill="#0A061E" />
    <path
      d="M194.311 186.953C193.334 186.953 192.475 186.588 191.889 185.924C191.251 185.207 190.99 184.217 191.185 183.161C191.368 182.158 191.915 181.194 192.748 180.451C194.506 178.887 196.993 178.783 198.282 180.229C198.92 180.959 199.181 181.936 198.985 182.992C198.803 183.995 198.256 184.96 197.41 185.702C196.576 186.445 195.561 186.888 194.532 186.94C194.467 186.953 194.389 186.953 194.311 186.953ZM195.847 180.451C195.105 180.451 194.272 180.764 193.581 181.389C192.956 181.949 192.54 182.653 192.409 183.383C192.292 184.06 192.435 184.66 192.813 185.09C193.191 185.52 193.79 185.741 194.467 185.702C195.209 185.663 195.951 185.324 196.576 184.777C197.201 184.217 197.618 183.513 197.748 182.783C197.866 182.106 197.722 181.506 197.345 181.063C196.98 180.646 196.433 180.451 195.847 180.451Z"
      fill="#0A061E" />
    <path
      d="M231.943 185.807C231.761 185.807 231.566 185.715 231.449 185.559L228.167 181.272C227.959 180.998 228.011 180.607 228.284 180.399C228.558 180.19 228.948 180.242 229.157 180.516L232.438 184.803C232.647 185.077 232.594 185.468 232.321 185.676C232.204 185.754 232.074 185.807 231.943 185.807Z"
      fill="#0A061E" />
    <path
      d="M227.659 185.806C227.477 185.806 227.295 185.728 227.178 185.572C226.956 185.298 226.995 184.907 227.269 184.686L232.569 180.399C232.842 180.177 233.233 180.216 233.454 180.49C233.675 180.764 233.636 181.154 233.363 181.376L228.063 185.663C227.933 185.754 227.79 185.806 227.659 185.806Z"
      fill="#0A061E" />
    <path
      d="M243.025 185.807C242.843 185.807 242.647 185.715 242.53 185.559L239.249 181.272C239.04 180.998 239.092 180.607 239.366 180.399C239.639 180.19 240.03 180.242 240.238 180.516L243.52 184.803C243.728 185.077 243.676 185.468 243.402 185.676C243.285 185.754 243.155 185.807 243.025 185.807Z"
      fill="#0A061E" />
    <path
      d="M238.728 185.806C238.546 185.806 238.363 185.728 238.246 185.572C238.025 185.298 238.064 184.907 238.337 184.686L243.637 180.399C243.911 180.177 244.301 180.216 244.523 180.49C244.744 180.764 244.705 181.154 244.431 181.376L239.132 185.663C239.014 185.754 238.871 185.806 238.728 185.806Z"
      fill="#0A061E" />
    <path
      d="M206.824 185.807C206.642 185.807 206.447 185.715 206.33 185.559L203.048 181.272C202.84 180.998 202.892 180.607 203.165 180.399C203.439 180.19 203.829 180.242 204.038 180.516L207.319 184.803C207.528 185.077 207.476 185.468 207.202 185.676C207.085 185.754 206.955 185.807 206.824 185.807Z"
      fill="#0A061E" />
    <path
      d="M202.527 185.806C202.345 185.806 202.163 185.728 202.046 185.572C201.824 185.298 201.863 184.907 202.137 184.686L207.437 180.399C207.71 180.177 208.101 180.216 208.322 180.49C208.543 180.764 208.504 181.154 208.231 181.376L202.931 185.663C202.814 185.754 202.671 185.806 202.527 185.806Z"
      fill="#0A061E" />
    <path
      d="M217.906 185.807C217.724 185.807 217.528 185.715 217.411 185.559L214.13 181.272C213.921 180.998 213.973 180.607 214.247 180.399C214.52 180.19 214.911 180.242 215.119 180.516L218.401 184.803C218.609 185.077 218.557 185.468 218.284 185.676C218.166 185.754 218.036 185.807 217.906 185.807Z"
      fill="#0A061E" />
    <path
      d="M213.609 185.806C213.426 185.806 213.244 185.728 213.127 185.572C212.906 185.298 212.945 184.907 213.218 184.686L218.518 180.399C218.791 180.177 219.182 180.216 219.403 180.49C219.625 180.764 219.586 181.154 219.312 181.376L214.012 185.663C213.895 185.754 213.752 185.806 213.609 185.806Z"
      fill="#0A061E" />
    <path
      d="M254.106 185.807C253.924 185.807 253.729 185.715 253.612 185.559L250.33 181.272C250.122 180.998 250.174 180.607 250.447 180.399C250.721 180.19 251.112 180.242 251.32 180.516L254.601 184.803C254.81 185.077 254.758 185.468 254.484 185.676C254.367 185.754 254.237 185.807 254.106 185.807Z"
      fill="#0A061E" />
    <path
      d="M249.809 185.806C249.627 185.806 249.445 185.728 249.327 185.572C249.106 185.298 249.145 184.907 249.419 184.686L254.718 180.399C254.992 180.177 255.383 180.216 255.604 180.49C255.825 180.764 255.786 181.154 255.513 181.376L250.213 185.663C250.096 185.754 249.952 185.806 249.809 185.806Z"
      fill="#0A061E" />
    <path
      d="M265.188 185.807C265.006 185.807 264.81 185.715 264.693 185.559L261.412 181.272C261.203 180.998 261.255 180.607 261.529 180.399C261.802 180.19 262.193 180.242 262.401 180.516L265.683 184.803C265.891 185.077 265.839 185.468 265.566 185.676C265.449 185.754 265.318 185.807 265.188 185.807Z"
      fill="#0A061E" />
    <path
      d="M260.891 185.806C260.709 185.806 260.526 185.728 260.409 185.572C260.188 185.298 260.227 184.907 260.5 184.686L265.8 180.399C266.074 180.177 266.464 180.216 266.686 180.49C266.907 180.764 266.868 181.154 266.594 181.376L261.295 185.663C261.177 185.754 261.034 185.806 260.891 185.806Z"
      fill="#0A061E" />
    <path
      d="M92.9622 199.906H88.6129C88.2613 199.906 87.9879 199.62 87.9879 199.281C87.9879 198.942 88.2743 198.655 88.6129 198.655H92.9622C93.3138 198.655 93.5872 198.942 93.5872 199.281C93.5872 199.62 93.3007 199.906 92.9622 199.906Z"
      fill="#0A061E" />
    <path
      d="M84.8497 199.906H80.5004C80.1488 199.906 79.8754 199.62 79.8754 199.281C79.8754 198.942 80.1618 198.655 80.5004 198.655H84.8497C85.2013 198.655 85.4747 198.942 85.4747 199.281C85.4747 199.62 85.1882 199.906 84.8497 199.906Z"
      fill="#0A061E" />
    <path
      d="M114.11 199.906H109.76C109.409 199.906 109.135 199.62 109.135 199.281C109.135 198.942 109.422 198.655 109.76 198.655H114.11C114.461 198.655 114.735 198.942 114.735 199.281C114.735 199.62 114.448 199.906 114.11 199.906Z"
      fill="#0A061E" />
    <path
      d="M105.997 199.906H101.648C101.296 199.906 101.023 199.62 101.023 199.281C101.023 198.942 101.309 198.655 101.648 198.655H105.997C106.349 198.655 106.622 198.942 106.622 199.281C106.622 199.62 106.336 199.906 105.997 199.906Z"
      fill="#0A061E" />
    <path
      d="M97.611 201.066C97.2594 201.066 96.986 200.779 96.986 200.44L97.025 192.909C97.025 192.57 97.3115 192.283 97.6501 192.283C98.0017 192.283 98.2751 192.57 98.2751 192.909L98.2361 200.44C98.2361 200.779 97.9496 201.066 97.611 201.066Z"
      fill="#0A061E" />
    <path
      d="M110.008 213.158H77.5445C77.1929 213.158 76.9195 212.872 76.9195 212.533C76.9195 212.194 77.206 211.907 77.5445 211.907H109.995C110.346 211.907 110.62 212.194 110.62 212.533C110.62 212.872 110.346 213.158 110.008 213.158Z"
      fill="white" />
    <path
      d="M149.698 213.158H117.235C116.883 213.158 116.61 212.872 116.61 212.533C116.61 212.194 116.896 211.907 117.235 211.907H149.685C150.037 211.907 150.31 212.194 150.31 212.533C150.31 212.872 150.037 213.158 149.698 213.158Z"
      fill="white" />
    <path
      d="M112.885 147.079H100.866C96.413 147.079 93.6524 143.469 94.7071 139.013L97.2724 128.041C98.3272 123.584 102.781 119.975 107.234 119.975H119.253C123.707 119.975 126.467 123.584 125.412 128.041L122.847 139.013C121.805 143.469 117.339 147.079 112.885 147.079Z"
      fill="#56527C" />
    <path
      d="M114.604 147.105C114.552 147.105 114.513 147.105 114.461 147.092C114.123 147.014 113.914 146.675 113.992 146.336L120.126 120.222C120.204 119.884 120.542 119.675 120.881 119.753C121.219 119.831 121.428 120.17 121.35 120.509L115.216 146.623C115.151 146.909 114.891 147.105 114.604 147.105Z"
      fill="white" />
    <path
      d="M99.5514 147.105C99.4993 147.105 99.4603 147.105 99.4082 147.092C99.0696 147.014 98.8612 146.675 98.9394 146.336L105.073 120.222C105.151 119.884 105.489 119.675 105.828 119.753C106.166 119.831 106.375 120.17 106.297 120.509L100.163 146.623C100.085 146.909 99.8249 147.105 99.5514 147.105Z"
      fill="white" />
    <path
      d="M122.978 139.078H117.235C116.883 139.078 116.61 138.791 116.61 138.453C116.61 138.114 116.896 137.827 117.235 137.827H122.978C123.329 137.827 123.603 138.114 123.603 138.453C123.603 138.791 123.329 139.078 122.978 139.078Z"
      fill="white" />
    <path
      d="M101.179 139.078H95.4365C95.0849 139.078 94.8115 138.791 94.8115 138.453C94.8115 138.114 95.0979 137.827 95.4365 137.827H101.179C101.531 137.827 101.804 138.114 101.804 138.453C101.804 138.791 101.531 139.078 101.179 139.078Z"
      fill="white" />
    <path
      d="M124.892 129.722H119.149C118.797 129.722 118.524 129.435 118.524 129.096C118.524 128.757 118.81 128.471 119.149 128.471H124.892C125.243 128.471 125.517 128.757 125.517 129.096C125.517 129.435 125.23 129.722 124.892 129.722Z"
      fill="white" />
    <path
      d="M103.093 129.722H97.3506C96.999 129.722 96.7256 129.435 96.7256 129.096C96.7256 128.757 97.0121 128.471 97.3506 128.471H103.093C103.445 128.471 103.718 128.757 103.718 129.096C103.718 129.435 103.432 129.722 103.093 129.722Z"
      fill="white" />
    <path
      d="M252.752 196.713C258.456 196.518 262.154 200.805 261.021 206.304C259.888 211.79 254.354 216.403 248.65 216.599C242.947 216.794 239.249 212.507 240.382 207.008C241.515 201.522 247.049 196.909 252.752 196.713Z"
      fill="#7AEB9B" />
    <path
      d="M238.272 196.713C243.975 196.518 247.674 200.805 246.541 206.304C245.408 211.79 239.874 216.403 234.17 216.599C228.467 216.794 224.768 212.507 225.901 207.008C227.047 201.522 232.581 196.909 238.272 196.713Z"
      fill="#56527C" />
    <path
      d="M298.354 139.977C298.302 139.977 298.25 139.977 298.198 139.964C297.859 139.886 297.664 139.534 297.742 139.208L299.331 132.862C299.409 132.524 299.761 132.328 300.086 132.406C300.425 132.485 300.62 132.836 300.542 133.162L298.953 139.508C298.888 139.782 298.628 139.977 298.354 139.977Z"
      fill="#0A061E" />
    <path
      d="M277.936 133.618C277.728 133.618 277.506 133.54 277.35 133.371C277.025 133.045 277.025 132.511 277.35 132.185C279.707 129.826 280.996 126.699 280.996 123.363C280.996 120.027 279.694 116.9 277.35 114.541C277.025 114.215 277.025 113.681 277.35 113.355C277.676 113.029 278.21 113.029 278.535 113.355C281.205 116.026 282.676 119.584 282.676 123.363C282.676 127.142 281.205 130.699 278.535 133.371C278.366 133.527 278.144 133.618 277.936 133.618Z"
      fill="#0A061E" />
    <path
      d="M274.277 131.455C274.069 131.455 273.848 131.377 273.691 131.208C273.366 130.882 273.366 130.347 273.691 130.022C275.475 128.237 276.452 125.878 276.452 123.35C276.452 120.835 275.475 118.463 273.691 116.678C273.366 116.352 273.366 115.818 273.691 115.492C274.017 115.167 274.551 115.167 274.876 115.492C276.973 117.59 278.119 120.379 278.119 123.337C278.119 126.295 276.96 129.084 274.876 131.181C274.707 131.377 274.486 131.455 274.277 131.455Z"
      fill="#0A061E" />
    <path
      d="M270.683 128.979C270.475 128.979 270.253 128.901 270.097 128.732C269.772 128.406 269.772 127.872 270.097 127.546C271.217 126.425 271.829 124.94 271.829 123.363C271.829 121.786 271.217 120.301 270.097 119.18C269.772 118.854 269.772 118.32 270.097 117.994C270.423 117.669 270.957 117.669 271.282 117.994C272.714 119.428 273.496 121.33 273.496 123.35C273.496 125.37 272.701 127.285 271.282 128.706C271.113 128.888 270.891 128.979 270.683 128.979Z"
      fill="#0A061E" />
    <path
      d="M267.115 126.373C266.907 126.373 266.686 126.295 266.529 126.125C266.204 125.799 266.204 125.265 266.529 124.939C267.402 124.066 267.402 122.646 266.529 121.773C266.204 121.447 266.204 120.913 266.529 120.587C266.855 120.261 267.389 120.261 267.714 120.587C269.238 122.112 269.238 124.588 267.714 126.112C267.545 126.295 267.324 126.373 267.115 126.373Z"
      fill="#0A061E" />
    <path
      d="M23.8949 205.522C23.8428 205.522 23.7907 205.509 23.7387 205.496L17.5403 203.894C17.2017 203.802 17.0064 203.464 17.0976 203.125C17.1887 202.786 17.5273 202.59 17.8658 202.682L23.4001 204.115L24.4158 198.225C24.4809 197.886 24.7934 197.652 25.145 197.717C25.4836 197.782 25.718 198.095 25.6529 198.447L24.52 205.001C24.4939 205.171 24.3897 205.327 24.2465 205.418C24.1423 205.483 24.0251 205.522 23.8949 205.522Z"
      fill="#0A061E" />
    <path
      d="M77.3491 53.1009C77.1537 53.1009 76.9584 53.0097 76.8412 52.8403L73.2082 47.8234C72.9998 47.5367 73.0649 47.1458 73.3514 46.9503C73.6379 46.7418 74.0285 46.807 74.2239 47.0937L77.8569 52.1105C78.0653 52.3972 78.0002 52.7881 77.7137 52.9836C77.5965 53.0618 77.4793 53.1009 77.3491 53.1009Z"
      fill="#0A061E" />
    <path
      d="M42.8548 355.976C42.8157 355.976 42.7636 355.976 42.7246 355.963L34.4037 354.178C34.0651 354.1 33.8437 353.774 33.9218 353.435C34 353.097 34.3255 352.875 34.6641 352.953L42.985 354.738C43.3236 354.817 43.5449 355.142 43.4668 355.481C43.4147 355.768 43.1543 355.976 42.8548 355.976Z"
      fill="#0A061E" />
    <path
      d="M164.178 40.2785C164.139 40.2785 164.1 40.2785 164.061 40.2654C163.722 40.2003 163.501 39.8745 163.566 39.5357L164.361 35.444C164.426 35.1052 164.751 34.8837 165.09 34.9489C165.428 35.014 165.65 35.3398 165.585 35.6786L164.79 39.7703C164.738 40.07 164.478 40.2785 164.178 40.2785Z"
      fill="#0A061E" />
    <path
      d="M156.027 41.7118C155.792 41.7118 155.571 41.5815 155.467 41.36L154.178 38.6756C154.021 38.3629 154.152 37.985 154.464 37.8416C154.777 37.6853 155.154 37.8156 155.298 38.1283L156.587 40.8127C156.743 41.1254 156.613 41.5033 156.3 41.6467C156.209 41.6857 156.118 41.7118 156.027 41.7118Z"
      fill="#0A061E" />
    <path
      d="M171.08 45.256C170.937 45.256 170.78 45.2039 170.663 45.0997C170.403 44.8651 170.39 44.4742 170.611 44.2136L172.929 41.6335C173.163 41.3729 173.554 41.3598 173.814 41.5813C174.075 41.8159 174.088 42.2068 173.866 42.4674L171.549 45.0476C171.418 45.1909 171.249 45.256 171.08 45.256Z"
      fill="#0A061E" />
    <path
      d="M223.258 19.7416C223.05 19.7416 222.854 19.6374 222.724 19.4549L219.937 15.1026C219.833 14.9463 219.807 14.7638 219.859 14.5814C219.911 14.412 220.042 14.2687 220.198 14.1905L234.782 7.64899C235.056 7.51868 235.381 7.60989 235.551 7.87051L238.519 12.1837L256.763 3.49215C257.075 3.34881 257.453 3.47912 257.596 3.79186C257.74 4.1046 257.609 4.48249 257.297 4.62583L238.585 13.552C238.311 13.6823 237.973 13.591 237.803 13.3435L234.834 9.01722L221.409 15.0505L223.805 18.7904C223.987 19.077 223.909 19.468 223.61 19.6504C223.492 19.7155 223.375 19.7416 223.258 19.7416Z"
      fill="#0A061E" />
    <path
      d="M280.332 332.247C280.202 332.247 280.059 332.208 279.942 332.117L275.944 328.977C275.67 328.768 275.618 328.364 275.84 328.091C276.048 327.817 276.452 327.765 276.725 327.986L280.723 331.127C280.996 331.335 281.048 331.739 280.827 332.013C280.697 332.169 280.515 332.247 280.332 332.247Z"
      fill="#0A061E" />
    <path d="M296.766 372.604L292.599 390.456L310.439 385.699L296.766 372.604Z" fill="#7AEB9B" />
    <path
      d="M311.037 432.728C310.777 432.728 310.529 432.558 310.438 432.298C310.334 431.972 310.503 431.62 310.829 431.503L316.181 429.718C316.507 429.613 316.858 429.783 316.975 430.109C317.093 430.434 316.91 430.786 316.585 430.903L311.233 432.689C311.168 432.715 311.102 432.728 311.037 432.728Z"
      fill="#0A061E" />
    <path
      d="M316.39 441.055C316.285 441.055 316.181 441.029 316.09 440.977L310.738 438.006C310.439 437.836 310.322 437.458 310.491 437.159C310.66 436.859 311.038 436.742 311.337 436.911L316.689 439.882C316.989 440.051 317.106 440.429 316.937 440.729C316.819 440.938 316.611 441.055 316.39 441.055Z"
      fill="#0A061E" />
    <path
      d="M316.22 297.689C316.077 297.689 315.947 297.65 315.829 297.546L311.649 294.197C311.376 293.976 311.337 293.585 311.545 293.311C311.767 293.037 312.157 292.998 312.431 293.207L316.611 296.556C316.884 296.777 316.923 297.168 316.715 297.442C316.585 297.611 316.402 297.689 316.22 297.689Z"
      fill="#0A061E" />
    <path d="M267.167 433.327L289.89 411.005L288.432 409.494L267.857 427.072L267.167 433.327Z" fill="#ECBFA8" />
    <path
      d="M178.112 301.312C178.02 301.312 177.916 301.286 177.838 301.247C177.526 301.091 177.408 300.713 177.565 300.4L179.231 297.064C179.388 296.752 179.765 296.634 180.078 296.791C180.39 296.947 180.508 297.325 180.351 297.638L178.685 300.973C178.567 301.182 178.346 301.312 178.112 301.312Z"
      fill="#0A061E" />
    <path
      d="M74.4064 237.513C74.0939 237.513 73.8204 237.266 73.7813 236.953L73.573 234.868C73.5339 234.529 73.7943 234.216 74.1329 234.177C74.4715 234.138 74.784 234.399 74.8231 234.738L75.0314 236.822C75.0705 237.161 74.81 237.474 74.4715 237.513C74.4585 237.513 74.4324 237.513 74.4064 237.513Z"
      fill="#0A061E" />
    <path
      d="M69.4059 237.096C69.1194 237.096 68.872 236.901 68.7939 236.627L68.5856 235.793C68.5074 235.454 68.7028 235.115 69.0413 235.037C69.3799 234.959 69.7184 235.154 69.7966 235.493L70.0049 236.327C70.083 236.666 69.8877 237.005 69.5492 237.083C69.5101 237.096 69.458 237.096 69.4059 237.096Z"
      fill="#0A061E" />
    <path
      d="M248.129 237.305C247.83 237.305 247.57 237.083 247.517 236.783L247.101 234.281C247.049 233.943 247.27 233.617 247.622 233.565C247.96 233.513 248.286 233.734 248.338 234.086L248.755 236.588C248.807 236.927 248.585 237.252 248.234 237.305C248.195 237.305 248.169 237.305 248.129 237.305Z"
      fill="#0A061E" />
    <path
      d="M163.983 238.151C163.631 238.151 163.358 237.865 163.358 237.526V236.275C163.358 235.923 163.644 235.649 163.983 235.649C164.322 235.649 164.608 235.936 164.608 236.275V237.526C164.608 237.865 164.335 238.151 163.983 238.151Z"
      fill="#0A061E" />
    <path
      d="M318.799 56.9969C321.82 56.2802 323.682 53.257 322.979 50.2339C322.262 47.2107 319.241 45.3473 316.22 46.064C313.199 46.7807 311.337 49.8038 312.053 52.827C312.757 55.8371 315.791 57.7005 318.799 56.9969Z"
      fill="#7AEB9B" />
    <path
      d="M257.739 87.9188H254.744C254.393 87.9188 254.119 87.6322 254.119 87.2934C254.119 86.9546 254.406 86.6679 254.744 86.6679H257.739C258.391 86.6679 259.042 86.6158 259.654 86.4985C259.992 86.4333 260.318 86.6549 260.383 87.0067C260.448 87.3455 260.227 87.6713 259.875 87.7364C259.185 87.8537 258.469 87.9188 257.739 87.9188ZM249.718 87.9188H244.692C244.34 87.9188 244.067 87.6322 244.067 87.2934C244.067 86.9546 244.353 86.6679 244.692 86.6679H249.718C250.07 86.6679 250.343 86.9546 250.343 87.2934C250.343 87.6322 250.07 87.9188 249.718 87.9188ZM239.678 87.9188H234.652C234.3 87.9188 234.027 87.6322 234.027 87.2934C234.027 86.9546 234.313 86.6679 234.652 86.6679H239.678C240.03 86.6679 240.303 86.9546 240.303 87.2934C240.303 87.6322 240.017 87.9188 239.678 87.9188ZM229.625 87.9188H224.599C224.247 87.9188 223.974 87.6322 223.974 87.2934C223.974 86.9546 224.261 86.6679 224.599 86.6679H229.625C229.977 86.6679 230.251 86.9546 230.251 87.2934C230.251 87.6322 229.977 87.9188 229.625 87.9188ZM219.586 87.9188H214.559C214.208 87.9188 213.934 87.6322 213.934 87.2934C213.934 86.9546 214.221 86.6679 214.559 86.6679H219.586C219.937 86.6679 220.211 86.9546 220.211 87.2934C220.211 87.6322 219.937 87.9188 219.586 87.9188ZM264.211 85.5733C264.042 85.5733 263.873 85.5081 263.742 85.3648C263.508 85.1042 263.534 84.7133 263.782 84.4787C264.901 83.4623 265.735 82.1071 266.204 80.5564C266.308 80.2307 266.659 80.0352 266.985 80.1394C267.31 80.2437 267.506 80.5955 267.402 80.9213C266.868 82.6935 265.904 84.2441 264.615 85.4169C264.511 85.5212 264.354 85.5733 264.211 85.5733ZM267.193 76.4126C266.881 76.4126 266.607 76.1781 266.568 75.8653C266.412 74.5622 266.047 73.2461 265.513 71.93L265.227 71.2263C265.097 70.9006 265.253 70.5357 265.566 70.4054C265.891 70.2751 266.256 70.4315 266.386 70.7442L266.672 71.4479C267.258 72.8552 267.636 74.2886 267.818 75.709C267.857 76.0478 267.623 76.3605 267.271 76.4126C267.245 76.3996 267.219 76.4126 267.193 76.4126ZM263.886 66.9522C263.638 66.9522 263.404 66.8089 263.3 66.5613L261.386 61.9093C261.255 61.5835 261.412 61.2187 261.724 61.0884C262.05 60.958 262.414 61.1144 262.544 61.4272L264.459 66.0792C264.589 66.4049 264.433 66.7698 264.12 66.9001C264.042 66.9392 263.964 66.9522 263.886 66.9522ZM260.057 57.6612C259.81 57.6612 259.576 57.5179 259.471 57.2703L257.557 52.6183C257.427 52.2925 257.583 51.9277 257.896 51.7974C258.221 51.6671 258.586 51.8234 258.716 52.1362L260.63 56.7882C260.76 57.1139 260.604 57.4788 260.292 57.6091C260.214 57.6352 260.135 57.6612 260.057 57.6612ZM256.242 48.3572C255.995 48.3572 255.76 48.2139 255.656 47.9663L253.742 43.3143C253.612 42.9885 253.768 42.6237 254.08 42.4934C254.406 42.363 254.77 42.5194 254.901 42.8322L256.815 47.4842C256.945 47.8099 256.789 48.1748 256.476 48.3051C256.398 48.3442 256.32 48.3572 256.242 48.3572ZM252.414 39.0662C252.166 39.0662 251.932 38.9229 251.828 38.6753L249.913 34.0233C249.783 33.6975 249.939 33.3327 250.252 33.2024C250.577 33.0721 250.942 33.2284 251.072 33.5412L252.987 38.1932C253.117 38.5189 252.96 38.8838 252.648 39.0141C252.57 39.0532 252.492 39.0662 252.414 39.0662ZM248.598 29.7622C248.351 29.7622 248.116 29.6189 248.012 29.3713L246.098 24.7063L247.257 24.2241L249.171 28.8892C249.301 29.2149 249.145 29.5798 248.833 29.7101C248.754 29.7492 248.676 29.7622 248.598 29.7622Z"
      fill="#0A061E" />
    <path
      d="M280.84 65.6232C280.71 65.6232 280.567 65.5841 280.449 65.4929C280.176 65.2844 280.137 64.8805 280.345 64.6068L282.598 61.7531C282.806 61.4794 283.21 61.4403 283.483 61.6488C283.757 61.8573 283.796 62.2613 283.588 62.5349L281.335 65.3887C281.218 65.545 281.022 65.6232 280.84 65.6232ZM286.205 58.8342C286.075 58.8342 285.932 58.7951 285.814 58.7039C285.541 58.4954 285.502 58.0914 285.71 57.8178L288.809 53.8825C289.018 53.6088 289.421 53.5697 289.695 53.7782C289.968 53.9867 290.007 54.3907 289.799 54.6643L286.7 58.5996C286.57 58.756 286.387 58.8342 286.205 58.8342ZM292.403 50.9636C292.273 50.9636 292.13 50.9245 292.013 50.8332C291.739 50.6248 291.7 50.2208 291.909 49.9471L295.008 46.0118C295.216 45.7382 295.62 45.6991 295.893 45.9076C296.167 46.1161 296.206 46.52 295.997 46.7937L292.898 50.729C292.781 50.8854 292.599 50.9636 292.403 50.9636ZM298.615 43.0929C298.485 43.0929 298.341 43.0538 298.224 42.9626C297.951 42.7541 297.912 42.3502 298.12 42.0765L301.219 38.1412C301.427 37.8676 301.831 37.8285 302.105 38.037C302.378 38.2455 302.417 38.6494 302.209 38.9231L299.11 42.8584C298.992 43.0147 298.797 43.0929 298.615 43.0929Z"
      fill="white" />
    <path
      d="M203.699 91.2549C203.387 91.2549 203.113 91.0204 203.074 90.7076C203.035 90.3688 203.283 90.0561 203.621 90.004C205.184 89.8085 207.437 89.3264 209.351 88.1015C211.434 86.7723 212.593 84.8568 212.814 82.4331C212.841 82.0943 213.153 81.8336 213.492 81.8597C213.83 81.8858 214.091 82.1985 214.065 82.5373C213.453 89.3264 206.668 90.8901 203.79 91.2419C203.751 91.2549 203.725 91.2549 203.699 91.2549Z"
      fill="#0A061E" />
  </g>
  <defs>
    <clipPath id="clip0">
      <rect width="340.649" height="448" fill="white" />
    </clipPath>
  </defs>
</svg>